solid torus30rad_10hole
facet normal 0.0 0.0 -1.0
  outer loop
    vertex -10.237997029391503 28.19899673439058 0.0
    vertex -9.927566538132712 1.2014252498377134 0.0
    vertex -9.999452293276606 -0.1046605679573113 0.0
  endloop
endfacet
facet normal 0.0 0.0 -1.0
  outer loop
    vertex -9.927566538132712 1.2014252498377134 0.0
    vertex -10.237997029391503 28.19899673439058 0.0
    vertex -6.4697018773848685 29.29407717641508 0.0
  endloop
endfacet
facet normal 0.0 0.0 -1.0
  outer loop
    vertex -9.927566538132712 1.2014252498377134 0.0
    vertex -6.4697018773848685 29.29407717641508 0.0
    vertex -9.685817367079924 2.4869543485100136 0.0
  endloop
endfacet
facet normal 0.0 0.0 -1.0
  outer loop
    vertex -9.685817367079924 2.4869543485100136 0.0
    vertex -6.4697018773848685 29.29407717641508 0.0
    vertex -9.278341175460492 3.729930968765293 0.0
  endloop
endfacet
facet normal 0.0 0.0 -1.0
  outer loop
    vertex -9.278341175460492 3.729930968765293 0.0
    vertex -6.4697018773848685 29.29407717641508 0.0
    vertex -8.712109993886761 4.909087436012763 0.0
  endloop
endfacet
facet normal 0.0 0.0 -1.0
  outer loop
    vertex -8.712109993886761 4.909087436012763 0.0
    vertex -6.4697018773848685 29.29407717641508 0.0
    vertex -7.9968121948644075 6.004248056173884 0.0
  endloop
endfacet
facet normal 0.0 0.0 -1.0
  outer loop
    vertex -7.9968121948644075 6.004248056173884 0.0
    vertex -6.4697018773848685 29.29407717641508 0.0
    vertex -7.144686722052715 6.996674327401811 0.0
  endloop
endfacet
facet normal 0.0 0.0 -1.0
  outer loop
    vertex -7.144686722052715 6.996674327401811 0.0
    vertex -6.4697018773848685 29.29407717641508 0.0
    vertex -6.170313678545309 7.869385561043289 0.0
  endloop
endfacet
facet normal 0.0 0.0 -1.0
  outer loop
    vertex -6.170313678545309 7.869385561043289 0.0
    vertex -6.4697018773848685 29.29407717641508 0.0
    vertex -2.5907083325159457 29.887927836098516 0.0
  endloop
endfacet
facet normal 0.0 0.0 -1.0
  outer loop
    vertex -6.170313678545309 7.869385561043289 0.0
    vertex -2.5907083325159457 29.887927836098516 0.0
    vertex -5.090364857263845 8.607449425929449 0.0
  endloop
endfacet
facet normal 0.0 0.0 -1.0
  outer loop
    vertex -5.090364857263845 8.607449425929449 0.0
    vertex -2.5907083325159457 29.887927836098516 0.0
    vertex -3.9233184819588294 9.198237444702121 0.0
  endloop
endfacet
facet normal 0.0 0.0 -1.0
  outer loop
    vertex -3.9233184819588294 9.198237444702121 0.0
    vertex -2.5907083325159457 29.887927836098516 0.0
    vertex -2.689143039678115 9.631641070562727 0.0
  endloop
endfacet
facet normal 0.0 0.0 -1.0
  outer loop
    vertex -2.689143039678115 9.631641070562727 0.0
    vertex -2.5907083325159457 29.887927836098516 0.0
    vertex -1.4089556144172013 9.900244647310599 0.0
  endloop
endfacet
facet normal 0.0 0.0 -1.0
  outer loop
    vertex -1.4089556144172013 9.900244647310599 0.0
    vertex -2.5907083325159457 29.887927836098516 0.0
    vertex 1.3326129502023785 29.970387764007206 0.0
  endloop
endfacet
facet normal 0.0 0.0 -1.0
  outer loop
    vertex -1.4089556144172013 9.900244647310599 0.0
    vertex 1.3326129502023785 29.970387764007206 0.0
    vertex -0.10466056795731342 9.999452293276606 0.0
  endloop
endfacet
facet normal 0.0 0.0 -1.0
  outer loop
    vertex -0.10466056795731342 9.999452293276606 0.0
    vertex 1.3326129502023785 29.970387764007206 0.0
    vertex 1.2014252498377134 9.927566538132712 0.0
  endloop
endfacet
facet normal 0.0 0.0 -1.0
  outer loop
    vertex 1.2014252498377134 9.927566538132712 0.0
    vertex 1.3326129502023785 29.970387764007206 0.0
    vertex 2.48695434851001 9.685817367079924 0.0
  endloop
endfacet
facet normal 0.0 0.0 -1.0
  outer loop
    vertex 2.48695434851001 9.685817367079924 0.0
    vertex 1.3326129502023785 29.970387764007206 0.0
    vertex 5.23313285587263 29.540046047912423 0.0
  endloop
endfacet
facet normal 0.0 0.0 -1.0
  outer loop
    vertex 2.48695434851001 9.685817367079924 0.0
    vertex 5.23313285587263 29.540046047912423 0.0
    vertex 3.729930968765291 9.278341175460492 0.0
  endloop
endfacet
facet normal 0.0 0.0 -1.0
  outer loop
    vertex 3.729930968765291 9.278341175460492 0.0
    vertex 5.23313285587263 29.540046047912423 0.0
    vertex 4.909087436012761 8.712109993886763 0.0
  endloop
endfacet
facet normal 0.0 0.0 -1.0
  outer loop
    vertex 4.909087436012761 8.712109993886763 0.0
    vertex 5.23313285587263 29.540046047912423 0.0
    vertex 6.004248056173884 7.9968121948644075 0.0
  endloop
endfacet
facet normal 0.0 0.0 -1.0
  outer loop
    vertex 6.004248056173884 7.9968121948644075 0.0
    vertex 5.23313285587263 29.540046047912423 0.0
    vertex 9.044112407480364 28.604265953889808 0.0
  endloop
endfacet
facet normal 0.0 0.0 -1.0
  outer loop
    vertex 6.004248056173884 7.9968121948644075 0.0
    vertex 9.044112407480364 28.604265953889808 0.0
    vertex 6.99667432740181 7.144686722052715 0.0
  endloop
endfacet
facet normal 0.0 0.0 -1.0
  outer loop
    vertex 6.99667432740181 7.144686722052715 0.0
    vertex 9.044112407480364 28.604265953889808 0.0
    vertex 7.869385561043289 6.17031367854531 0.0
  endloop
endfacet
facet normal 0.0 0.0 -1.0
  outer loop
    vertex 7.869385561043289 6.17031367854531 0.0
    vertex 9.044112407480364 28.604265953889808 0.0
    vertex 8.607449425929453 5.090364857263838 0.0
  endloop
endfacet
facet normal 0.0 0.0 -1.0
  outer loop
    vertex 8.607449425929453 5.090364857263838 0.0
    vertex 9.044112407480364 28.604265953889808 0.0
    vertex 9.198237444702125 3.9233184819588236 0.0
  endloop
endfacet
facet normal 0.0 0.0 -1.0
  outer loop
    vertex 9.198237444702125 3.9233184819588236 0.0
    vertex 9.044112407480364 28.604265953889808 0.0
    vertex 12.700344688294424 27.17905893879535 0.0
  endloop
endfacet
facet normal 0.0 0.0 -1.0
  outer loop
    vertex 9.198237444702125 3.9233184819588236 0.0
    vertex 12.700344688294424 27.17905893879535 0.0
    vertex 9.631641070562727 2.689143039678109 0.0
  endloop
endfacet
facet normal 0.0 0.0 -1.0
  outer loop
    vertex 9.631641070562727 2.689143039678109 0.0
    vertex 12.700344688294424 27.17905893879535 0.0
    vertex 9.900244647310599 1.4089556144171977 0.0
  endloop
endfacet
facet normal 0.0 0.0 -1.0
  outer loop
    vertex 9.900244647310599 1.4089556144171977 0.0
    vertex 12.700344688294424 27.17905893879535 0.0
    vertex 9.999452293276606 0.1046605679573113 0.0
  endloop
endfacet
facet normal 0.0 0.0 -1.0
  outer loop
    vertex 9.999452293276606 0.1046605679573113 0.0
    vertex 12.700344688294424 27.17905893879535 0.0
    vertex 10.237997029391488 -28.198996734390587 0.0
  endloop
endfacet
facet normal 0.0 0.0 -1.0
  outer loop
    vertex 10.237997029391488 -28.198996734390587 0.0
    vertex 12.700344688294424 27.17905893879535 0.0
    vertex 13.831117213716203 -26.621423640001737 0.0
  endloop
endfacet
facet normal 0.0 0.0 -1.0
  outer loop
    vertex 13.831117213716203 -26.621423640001737 0.0
    vertex 12.700344688294424 27.17905893879535 0.0
    vertex 16.139270550290988 25.28881068979935 0.0
  endloop
endfacet
facet normal 0.0 0.0 -1.0
  outer loop
    vertex 13.831117213716203 -26.621423640001737 0.0
    vertex 16.139270550290988 25.28881068979935 0.0
    vertex 17.18758314780407 -24.588350606279416 0.0
  endloop
endfacet
facet normal 0.0 0.0 -1.0
  outer loop
    vertex 17.18758314780407 -24.588350606279416 0.0
    vertex 16.139270550290988 25.28881068979935 0.0
    vertex 19.302049018520915 22.965863878517954 0.0
  endloop
endfacet
facet normal 0.0 0.0 -1.0
  outer loop
    vertex 17.18758314780407 -24.588350606279416 0.0
    vertex 19.302049018520915 22.965863878517954 0.0
    vertex 20.24996476893469 -22.134564076504954 0.0
  endloop
endfacet
facet normal 0.0 0.0 -1.0
  outer loop
    vertex 20.24996476893469 -22.134564076504954 0.0
    vertex 19.302049018520915 22.965863878517954 0.0
    vertex 22.134564076504954 20.24996476893469 0.0
  endloop
endfacet
facet normal 0.0 0.0 -1.0
  outer loop
    vertex 20.24996476893469 -22.134564076504954 0.0
    vertex 22.134564076504954 20.24996476893469 0.0
    vertex 22.96586387851795 -19.30204901852092 0.0
  endloop
endfacet
facet normal 0.0 0.0 -1.0
  outer loop
    vertex 22.96586387851795 -19.30204901852092 0.0
    vertex 22.134564076504954 20.24996476893469 0.0
    vertex 24.588350606279416 17.18758314780407 0.0
  endloop
endfacet
facet normal 0.0 0.0 -1.0
  outer loop
    vertex 22.96586387851795 -19.30204901852092 0.0
    vertex 24.588350606279416 17.18758314780407 0.0
    vertex 25.288810689799345 -16.139270550291 0.0
  endloop
endfacet
facet normal 0.0 0.0 -1.0
  outer loop
    vertex 25.288810689799345 -16.139270550291 0.0
    vertex 24.588350606279416 17.18758314780407 0.0
    vertex 26.621423640001737 13.831117213716201 0.0
  endloop
endfacet
facet normal 0.0 0.0 -1.0
  outer loop
    vertex 25.288810689799345 -16.139270550291 0.0
    vertex 26.621423640001737 13.831117213716201 0.0
    vertex 27.179058938795343 -12.70034468829444 0.0
  endloop
endfacet
facet normal 0.0 0.0 -1.0
  outer loop
    vertex 27.179058938795343 -12.70034468829444 0.0
    vertex 26.621423640001737 13.831117213716201 0.0
    vertex 28.198996734390587 10.237997029391488 0.0
  endloop
endfacet
facet normal 0.0 0.0 -1.0
  outer loop
    vertex 27.179058938795343 -12.70034468829444 0.0
    vertex 28.198996734390587 10.237997029391488 0.0
    vertex 28.6042659538898 -9.04411240748038 0.0
  endloop
endfacet
facet normal 0.0 0.0 -1.0
  outer loop
    vertex 28.6042659538898 -9.04411240748038 0.0
    vertex 28.198996734390587 10.237997029391488 0.0
    vertex 29.29407717641508 6.469701877384862 0.0
  endloop
endfacet
facet normal 0.0 0.0 -1.0
  outer loop
    vertex 28.6042659538898 -9.04411240748038 0.0
    vertex 29.29407717641508 6.469701877384862 0.0
    vertex 29.540046047912416 -5.233132855872654 0.0
  endloop
endfacet
facet normal 0.0 0.0 -1.0
  outer loop
    vertex 29.540046047912416 -5.233132855872654 0.0
    vertex 29.29407717641508 6.469701877384862 0.0
    vertex 29.887927836098516 2.590708332515943 0.0
  endloop
endfacet
facet normal 0.0 0.0 -1.0
  outer loop
    vertex 29.540046047912416 -5.233132855872654 0.0
    vertex 29.887927836098516 2.590708332515943 0.0
    vertex 29.970387764007206 -1.3326129502024067 0.0
  endloop
endfacet
facet normal 0.0 0.0 -1.0
  outer loop
    vertex -29.540046047912416 5.233132855872633 0.0
    vertex -29.887927836098516 -2.5907083325159457 0.0
    vertex -29.970387764007206 1.3326129502023898 0.0
  endloop
endfacet
facet normal 0.0 0.0 -1.0
  outer loop
    vertex -29.887927836098516 -2.5907083325159457 0.0
    vertex -29.540046047912416 5.233132855872633 0.0
    vertex -29.29407717641508 -6.469701877384862 0.0
  endloop
endfacet
facet normal 0.0 0.0 -1.0
  outer loop
    vertex -29.29407717641508 -6.469701877384862 0.0
    vertex -29.540046047912416 5.233132855872633 0.0
    vertex -28.6042659538898 9.044112407480368 0.0
  endloop
endfacet
facet normal 0.0 0.0 -1.0
  outer loop
    vertex -29.29407717641508 -6.469701877384862 0.0
    vertex -28.6042659538898 9.044112407480368 0.0
    vertex -28.198996734390587 -10.237997029391495 0.0
  endloop
endfacet
facet normal 0.0 0.0 -1.0
  outer loop
    vertex -28.198996734390587 -10.237997029391495 0.0
    vertex -28.6042659538898 9.044112407480368 0.0
    vertex -27.17905893879535 12.700344688294425 0.0
  endloop
endfacet
facet normal 0.0 0.0 -1.0
  outer loop
    vertex -28.198996734390587 -10.237997029391495 0.0
    vertex -27.17905893879535 12.700344688294425 0.0
    vertex -26.62142364000173 -13.831117213716215 0.0
  endloop
endfacet
facet normal 0.0 0.0 -1.0
  outer loop
    vertex -26.62142364000173 -13.831117213716215 0.0
    vertex -27.17905893879535 12.700344688294425 0.0
    vertex -25.288810689799348 16.139270550290995 0.0
  endloop
endfacet
facet normal 0.0 0.0 -1.0
  outer loop
    vertex -26.62142364000173 -13.831117213716215 0.0
    vertex -25.288810689799348 16.139270550290995 0.0
    vertex -24.58835060627941 -17.187583147804084 0.0
  endloop
endfacet
facet normal 0.0 0.0 -1.0
  outer loop
    vertex -24.58835060627941 -17.187583147804084 0.0
    vertex -25.288810689799348 16.139270550290995 0.0
    vertex -22.965863878517954 19.302049018520915 0.0
  endloop
endfacet
facet normal 0.0 0.0 -1.0
  outer loop
    vertex -24.58835060627941 -17.187583147804084 0.0
    vertex -22.965863878517954 19.302049018520915 0.0
    vertex -22.134564076504947 -20.249964768934703 0.0
  endloop
endfacet
facet normal 0.0 0.0 -1.0
  outer loop
    vertex -22.134564076504947 -20.249964768934703 0.0
    vertex -22.965863878517954 19.302049018520915 0.0
    vertex -20.24996476893471 22.134564076504937 0.0
  endloop
endfacet
facet normal 0.0 0.0 -1.0
  outer loop
    vertex -22.134564076504947 -20.249964768934703 0.0
    vertex -20.24996476893471 22.134564076504937 0.0
    vertex -19.30204901852092 -22.96586387851795 0.0
  endloop
endfacet
facet normal 0.0 0.0 -1.0
  outer loop
    vertex -19.30204901852092 -22.96586387851795 0.0
    vertex -20.24996476893471 22.134564076504937 0.0
    vertex -17.187583147804084 24.58835060627941 0.0
  endloop
endfacet
facet normal 0.0 0.0 -1.0
  outer loop
    vertex -19.30204901852092 -22.96586387851795 0.0
    vertex -17.187583147804084 24.58835060627941 0.0
    vertex -16.139270550290995 -25.288810689799345 0.0
  endloop
endfacet
facet normal 0.0 0.0 -1.0
  outer loop
    vertex -16.139270550290995 -25.288810689799345 0.0
    vertex -17.187583147804084 24.58835060627941 0.0
    vertex -13.831117213716215 26.62142364000173 0.0
  endloop
endfacet
facet normal 0.0 0.0 -1.0
  outer loop
    vertex -16.139270550290995 -25.288810689799345 0.0
    vertex -13.831117213716215 26.62142364000173 0.0
    vertex -12.700344688294436 -27.17905893879535 0.0
  endloop
endfacet
facet normal 0.0 0.0 -1.0
  outer loop
    vertex -12.700344688294436 -27.17905893879535 0.0
    vertex -13.831117213716215 26.62142364000173 0.0
    vertex -10.237997029391503 28.19899673439058 0.0
  endloop
endfacet
facet normal 0.0 0.0 -1.0
  outer loop
    vertex -12.700344688294436 -27.17905893879535 0.0
    vertex -10.237997029391503 28.19899673439058 0.0
    vertex -9.999452293276606 -0.1046605679573113 0.0
  endloop
endfacet
facet normal 0.0 0.0 -1.0
  outer loop
    vertex -12.700344688294436 -27.17905893879535 0.0
    vertex -9.999452293276606 -0.1046605679573113 0.0
    vertex -9.044112407480378 -28.604265953889808 0.0
  endloop
endfacet
facet normal 0.0 0.0 -1.0
  outer loop
    vertex -9.044112407480378 -28.604265953889808 0.0
    vertex -9.999452293276606 -0.1046605679573113 0.0
    vertex -9.900244647310599 -1.4089556144171984 0.0
  endloop
endfacet
facet normal 0.0 0.0 -1.0
  outer loop
    vertex -9.044112407480378 -28.604265953889808 0.0
    vertex -9.900244647310599 -1.4089556144171984 0.0
    vertex -9.631641070562727 -2.689143039678115 0.0
  endloop
endfacet
facet normal 0.0 0.0 -1.0
  outer loop
    vertex -9.044112407480378 -28.604265953889808 0.0
    vertex -9.631641070562727 -2.689143039678115 0.0
    vertex -9.198237444702123 -3.9233184819588285 0.0
  endloop
endfacet
facet normal 0.0 0.0 -1.0
  outer loop
    vertex -9.044112407480378 -28.604265953889808 0.0
    vertex -9.198237444702123 -3.9233184819588285 0.0
    vertex -8.60744942592945 -5.090364857263842 0.0
  endloop
endfacet
facet normal 0.0 0.0 -1.0
  outer loop
    vertex -9.044112407480378 -28.604265953889808 0.0
    vertex -8.60744942592945 -5.090364857263842 0.0
    vertex -5.233132855872633 -29.540046047912416 0.0
  endloop
endfacet
facet normal 0.0 0.0 -1.0
  outer loop
    vertex -5.233132855872633 -29.540046047912416 0.0
    vertex -8.60744942592945 -5.090364857263842 0.0
    vertex -7.8693855610432895 -6.170313678545309 0.0
  endloop
endfacet
facet normal 0.0 0.0 -1.0
  outer loop
    vertex -5.233132855872633 -29.540046047912416 0.0
    vertex -7.8693855610432895 -6.170313678545309 0.0
    vertex -6.996674327401811 -7.144686722052715 0.0
  endloop
endfacet
facet normal 0.0 0.0 -1.0
  outer loop
    vertex -5.233132855872633 -29.540046047912416 0.0
    vertex -6.996674327401811 -7.144686722052715 0.0
    vertex -6.0042480561738865 -7.996812194864405 0.0
  endloop
endfacet
facet normal 0.0 0.0 -1.0
  outer loop
    vertex -5.233132855872633 -29.540046047912416 0.0
    vertex -6.0042480561738865 -7.996812194864405 0.0
    vertex -4.909087436012765 -8.71210999388676 0.0
  endloop
endfacet
facet normal 0.0 0.0 -1.0
  outer loop
    vertex -5.233132855872633 -29.540046047912416 0.0
    vertex -4.909087436012765 -8.71210999388676 0.0
    vertex -1.3326129502023898 -29.970387764007206 0.0
  endloop
endfacet
facet normal 0.0 0.0 -1.0
  outer loop
    vertex -1.3326129502023898 -29.970387764007206 0.0
    vertex -4.909087436012765 -8.71210999388676 0.0
    vertex -3.729930968765293 -9.278341175460492 0.0
  endloop
endfacet
facet normal 0.0 0.0 -1.0
  outer loop
    vertex -1.3326129502023898 -29.970387764007206 0.0
    vertex -3.729930968765293 -9.278341175460492 0.0
    vertex -2.4869543485100136 -9.685817367079924 0.0
  endloop
endfacet
facet normal 0.0 0.0 -1.0
  outer loop
    vertex -1.3326129502023898 -29.970387764007206 0.0
    vertex -2.4869543485100136 -9.685817367079924 0.0
    vertex -1.2014252498377198 -9.927566538132712 0.0
  endloop
endfacet
facet normal 0.0 0.0 -1.0
  outer loop
    vertex -1.3326129502023898 -29.970387764007206 0.0
    vertex -1.2014252498377198 -9.927566538132712 0.0
    vertex 2.5907083325159315 -29.887927836098513 0.0
  endloop
endfacet
facet normal 0.0 0.0 -1.0
  outer loop
    vertex 2.5907083325159315 -29.887927836098513 0.0
    vertex -1.2014252498377198 -9.927566538132712 0.0
    vertex 0.1046605679573113 -9.999452293276606 0.0
  endloop
endfacet
facet normal 0.0 0.0 -1.0
  outer loop
    vertex 2.5907083325159315 -29.887927836098513 0.0
    vertex 0.1046605679573113 -9.999452293276606 0.0
    vertex 1.4089556144171977 -9.900244647310599 0.0
  endloop
endfacet
facet normal 0.0 0.0 -1.0
  outer loop
    vertex 2.5907083325159315 -29.887927836098513 0.0
    vertex 1.4089556144171977 -9.900244647310599 0.0
    vertex 2.6891430396781093 -9.631641070562727 0.0
  endloop
endfacet
facet normal 0.0 0.0 -1.0
  outer loop
    vertex 2.5907083325159315 -29.887927836098513 0.0
    vertex 2.6891430396781093 -9.631641070562727 0.0
    vertex 6.469701877384862 -29.29407717641508 0.0
  endloop
endfacet
facet normal 0.0 0.0 -1.0
  outer loop
    vertex 6.469701877384862 -29.29407717641508 0.0
    vertex 2.6891430396781093 -9.631641070562727 0.0
    vertex 3.9233184819588236 -9.198237444702123 0.0
  endloop
endfacet
facet normal 0.0 0.0 -1.0
  outer loop
    vertex 6.469701877384862 -29.29407717641508 0.0
    vertex 3.9233184819588236 -9.198237444702123 0.0
    vertex 5.090364857263838 -8.607449425929453 0.0
  endloop
endfacet
facet normal 0.0 0.0 -1.0
  outer loop
    vertex 6.469701877384862 -29.29407717641508 0.0
    vertex 5.090364857263838 -8.607449425929453 0.0
    vertex 6.170313678545308 -7.8693855610432895 0.0
  endloop
endfacet
facet normal 0.0 0.0 -1.0
  outer loop
    vertex 6.469701877384862 -29.29407717641508 0.0
    vertex 6.170313678545308 -7.8693855610432895 0.0
    vertex 7.144686722052715 -6.996674327401811 0.0
  endloop
endfacet
facet normal 0.0 0.0 -1.0
  outer loop
    vertex 6.469701877384862 -29.29407717641508 0.0
    vertex 7.144686722052715 -6.996674327401811 0.0
    vertex 10.237997029391488 -28.198996734390587 0.0
  endloop
endfacet
facet normal 0.0 0.0 -1.0
  outer loop
    vertex 10.237997029391488 -28.198996734390587 0.0
    vertex 7.144686722052715 -6.996674327401811 0.0
    vertex 7.996812194864405 -6.0042480561738865 0.0
  endloop
endfacet
facet normal 0.0 0.0 -1.0
  outer loop
    vertex 10.237997029391488 -28.198996734390587 0.0
    vertex 7.996812194864405 -6.0042480561738865 0.0
    vertex 8.712109993886758 -4.909087436012766 0.0
  endloop
endfacet
facet normal 0.0 0.0 -1.0
  outer loop
    vertex 10.237997029391488 -28.198996734390587 0.0
    vertex 8.712109993886758 -4.909087436012766 0.0
    vertex 9.278341175460488 -3.7299309687652973 0.0
  endloop
endfacet
facet normal 0.0 0.0 -1.0
  outer loop
    vertex 10.237997029391488 -28.198996734390587 0.0
    vertex 9.278341175460488 -3.7299309687652973 0.0
    vertex 9.685817367079924 -2.4869543485100185 0.0
  endloop
endfacet
facet normal 0.0 0.0 -1.0
  outer loop
    vertex 10.237997029391488 -28.198996734390587 0.0
    vertex 9.685817367079924 -2.4869543485100185 0.0
    vertex 9.927566538132712 -1.201425249837715 0.0
  endloop
endfacet
facet normal 0.0 0.0 -1.0
  outer loop
    vertex 10.237997029391488 -28.198996734390587 0.0
    vertex 9.927566538132712 -1.201425249837715 0.0
    vertex 9.999452293276606 0.1046605679573113 0.0
  endloop
endfacet
facet normal -0.0 -0.0 1.0
  outer loop
    vertex -29.887927836098516 -2.5907083325159457 3.0
    vertex -29.540046047912416 5.233132855872633 3.0
    vertex -29.970387764007206 1.3326129502023898 3.0
  endloop
endfacet
facet normal -0.0 -0.0 1.0
  outer loop
    vertex -29.540046047912416 5.233132855872633 3.0
    vertex -29.887927836098516 -2.5907083325159457 3.0
    vertex -29.29407717641508 -6.469701877384862 3.0
  endloop
endfacet
facet normal -0.0 -0.0 1.0
  outer loop
    vertex -29.540046047912416 5.233132855872633 3.0
    vertex -29.29407717641508 -6.469701877384862 3.0
    vertex -28.6042659538898 9.044112407480368 3.0
  endloop
endfacet
facet normal -0.0 -0.0 1.0
  outer loop
    vertex -28.6042659538898 9.044112407480368 3.0
    vertex -29.29407717641508 -6.469701877384862 3.0
    vertex -28.198996734390587 -10.237997029391495 3.0
  endloop
endfacet
facet normal -0.0 -0.0 1.0
  outer loop
    vertex -28.6042659538898 9.044112407480368 3.0
    vertex -28.198996734390587 -10.237997029391495 3.0
    vertex -27.17905893879535 12.700344688294425 3.0
  endloop
endfacet
facet normal -0.0 -0.0 1.0
  outer loop
    vertex -27.17905893879535 12.700344688294425 3.0
    vertex -28.198996734390587 -10.237997029391495 3.0
    vertex -26.62142364000173 -13.831117213716215 3.0
  endloop
endfacet
facet normal -0.0 -0.0 1.0
  outer loop
    vertex -27.17905893879535 12.700344688294425 3.0
    vertex -26.62142364000173 -13.831117213716215 3.0
    vertex -25.288810689799348 16.139270550290995 3.0
  endloop
endfacet
facet normal -0.0 -0.0 1.0
  outer loop
    vertex -25.288810689799348 16.139270550290995 3.0
    vertex -26.62142364000173 -13.831117213716215 3.0
    vertex -24.58835060627941 -17.187583147804084 3.0
  endloop
endfacet
facet normal -0.0 -0.0 1.0
  outer loop
    vertex -25.288810689799348 16.139270550290995 3.0
    vertex -24.58835060627941 -17.187583147804084 3.0
    vertex -22.965863878517954 19.302049018520915 3.0
  endloop
endfacet
facet normal -0.0 -0.0 1.0
  outer loop
    vertex -22.965863878517954 19.302049018520915 3.0
    vertex -24.58835060627941 -17.187583147804084 3.0
    vertex -22.134564076504947 -20.249964768934703 3.0
  endloop
endfacet
facet normal -0.0 -0.0 1.0
  outer loop
    vertex -22.965863878517954 19.302049018520915 3.0
    vertex -22.134564076504947 -20.249964768934703 3.0
    vertex -20.24996476893471 22.134564076504937 3.0
  endloop
endfacet
facet normal -0.0 -0.0 1.0
  outer loop
    vertex -20.24996476893471 22.134564076504937 3.0
    vertex -22.134564076504947 -20.249964768934703 3.0
    vertex -19.30204901852092 -22.96586387851795 3.0
  endloop
endfacet
facet normal -0.0 -0.0 1.0
  outer loop
    vertex -20.24996476893471 22.134564076504937 3.0
    vertex -19.30204901852092 -22.96586387851795 3.0
    vertex -17.187583147804084 24.58835060627941 3.0
  endloop
endfacet
facet normal -0.0 -0.0 1.0
  outer loop
    vertex -17.187583147804084 24.58835060627941 3.0
    vertex -19.30204901852092 -22.96586387851795 3.0
    vertex -16.139270550290995 -25.288810689799345 3.0
  endloop
endfacet
facet normal -0.0 -0.0 1.0
  outer loop
    vertex -17.187583147804084 24.58835060627941 3.0
    vertex -16.139270550290995 -25.288810689799345 3.0
    vertex -13.831117213716215 26.62142364000173 3.0
  endloop
endfacet
facet normal -0.0 -0.0 1.0
  outer loop
    vertex -13.831117213716215 26.62142364000173 3.0
    vertex -16.139270550290995 -25.288810689799345 3.0
    vertex -12.700344688294436 -27.17905893879535 3.0
  endloop
endfacet
facet normal -0.0 -0.0 1.0
  outer loop
    vertex -13.831117213716215 26.62142364000173 3.0
    vertex -12.700344688294436 -27.17905893879535 3.0
    vertex -10.237997029391503 28.19899673439058 3.0
  endloop
endfacet
facet normal -0.0 -0.0 1.0
  outer loop
    vertex -10.237997029391503 28.19899673439058 3.0
    vertex -12.700344688294436 -27.17905893879535 3.0
    vertex -9.999452293276606 -0.1046605679573113 3.0
  endloop
endfacet
facet normal -0.0 -0.0 1.0
  outer loop
    vertex -9.999452293276606 -0.1046605679573113 3.0
    vertex -12.700344688294436 -27.17905893879535 3.0
    vertex -9.044112407480378 -28.604265953889808 3.0
  endloop
endfacet
facet normal -0.0 -0.0 1.0
  outer loop
    vertex -9.999452293276606 -0.1046605679573113 3.0
    vertex -9.044112407480378 -28.604265953889808 3.0
    vertex -9.900244647310599 -1.4089556144171984 3.0
  endloop
endfacet
facet normal -0.0 -0.0 1.0
  outer loop
    vertex -9.900244647310599 -1.4089556144171984 3.0
    vertex -9.044112407480378 -28.604265953889808 3.0
    vertex -9.631641070562727 -2.689143039678115 3.0
  endloop
endfacet
facet normal -0.0 -0.0 1.0
  outer loop
    vertex -9.631641070562727 -2.689143039678115 3.0
    vertex -9.044112407480378 -28.604265953889808 3.0
    vertex -9.198237444702123 -3.9233184819588285 3.0
  endloop
endfacet
facet normal -0.0 -0.0 1.0
  outer loop
    vertex -9.198237444702123 -3.9233184819588285 3.0
    vertex -9.044112407480378 -28.604265953889808 3.0
    vertex -8.60744942592945 -5.090364857263842 3.0
  endloop
endfacet
facet normal -0.0 -0.0 1.0
  outer loop
    vertex -8.60744942592945 -5.090364857263842 3.0
    vertex -9.044112407480378 -28.604265953889808 3.0
    vertex -5.233132855872633 -29.540046047912416 3.0
  endloop
endfacet
facet normal -0.0 -0.0 1.0
  outer loop
    vertex -8.60744942592945 -5.090364857263842 3.0
    vertex -5.233132855872633 -29.540046047912416 3.0
    vertex -7.8693855610432895 -6.170313678545309 3.0
  endloop
endfacet
facet normal -0.0 -0.0 1.0
  outer loop
    vertex -7.8693855610432895 -6.170313678545309 3.0
    vertex -5.233132855872633 -29.540046047912416 3.0
    vertex -6.996674327401811 -7.144686722052715 3.0
  endloop
endfacet
facet normal -0.0 -0.0 1.0
  outer loop
    vertex -6.996674327401811 -7.144686722052715 3.0
    vertex -5.233132855872633 -29.540046047912416 3.0
    vertex -6.0042480561738865 -7.996812194864405 3.0
  endloop
endfacet
facet normal -0.0 -0.0 1.0
  outer loop
    vertex -6.0042480561738865 -7.996812194864405 3.0
    vertex -5.233132855872633 -29.540046047912416 3.0
    vertex -4.909087436012765 -8.71210999388676 3.0
  endloop
endfacet
facet normal -0.0 -0.0 1.0
  outer loop
    vertex -4.909087436012765 -8.71210999388676 3.0
    vertex -5.233132855872633 -29.540046047912416 3.0
    vertex -1.3326129502023898 -29.970387764007206 3.0
  endloop
endfacet
facet normal -0.0 -0.0 1.0
  outer loop
    vertex -4.909087436012765 -8.71210999388676 3.0
    vertex -1.3326129502023898 -29.970387764007206 3.0
    vertex -3.729930968765293 -9.278341175460492 3.0
  endloop
endfacet
facet normal -0.0 -0.0 1.0
  outer loop
    vertex -3.729930968765293 -9.278341175460492 3.0
    vertex -1.3326129502023898 -29.970387764007206 3.0
    vertex -2.4869543485100136 -9.685817367079924 3.0
  endloop
endfacet
facet normal -0.0 -0.0 1.0
  outer loop
    vertex -2.4869543485100136 -9.685817367079924 3.0
    vertex -1.3326129502023898 -29.970387764007206 3.0
    vertex -1.2014252498377198 -9.927566538132712 3.0
  endloop
endfacet
facet normal -0.0 -0.0 1.0
  outer loop
    vertex -1.2014252498377198 -9.927566538132712 3.0
    vertex -1.3326129502023898 -29.970387764007206 3.0
    vertex 2.5907083325159315 -29.887927836098513 3.0
  endloop
endfacet
facet normal -0.0 -0.0 1.0
  outer loop
    vertex -1.2014252498377198 -9.927566538132712 3.0
    vertex 2.5907083325159315 -29.887927836098513 3.0
    vertex 0.1046605679573113 -9.999452293276606 3.0
  endloop
endfacet
facet normal -0.0 -0.0 1.0
  outer loop
    vertex 0.1046605679573113 -9.999452293276606 3.0
    vertex 2.5907083325159315 -29.887927836098513 3.0
    vertex 1.4089556144171977 -9.900244647310599 3.0
  endloop
endfacet
facet normal -0.0 -0.0 1.0
  outer loop
    vertex 1.4089556144171977 -9.900244647310599 3.0
    vertex 2.5907083325159315 -29.887927836098513 3.0
    vertex 2.6891430396781093 -9.631641070562727 3.0
  endloop
endfacet
facet normal -0.0 -0.0 1.0
  outer loop
    vertex 2.6891430396781093 -9.631641070562727 3.0
    vertex 2.5907083325159315 -29.887927836098513 3.0
    vertex 6.469701877384862 -29.29407717641508 3.0
  endloop
endfacet
facet normal -0.0 -0.0 1.0
  outer loop
    vertex 2.6891430396781093 -9.631641070562727 3.0
    vertex 6.469701877384862 -29.29407717641508 3.0
    vertex 3.9233184819588236 -9.198237444702123 3.0
  endloop
endfacet
facet normal -0.0 -0.0 1.0
  outer loop
    vertex 3.9233184819588236 -9.198237444702123 3.0
    vertex 6.469701877384862 -29.29407717641508 3.0
    vertex 5.090364857263838 -8.607449425929453 3.0
  endloop
endfacet
facet normal -0.0 -0.0 1.0
  outer loop
    vertex 5.090364857263838 -8.607449425929453 3.0
    vertex 6.469701877384862 -29.29407717641508 3.0
    vertex 6.170313678545308 -7.8693855610432895 3.0
  endloop
endfacet
facet normal -0.0 -0.0 1.0
  outer loop
    vertex 6.170313678545308 -7.8693855610432895 3.0
    vertex 6.469701877384862 -29.29407717641508 3.0
    vertex 7.144686722052715 -6.996674327401811 3.0
  endloop
endfacet
facet normal -0.0 -0.0 1.0
  outer loop
    vertex 7.144686722052715 -6.996674327401811 3.0
    vertex 6.469701877384862 -29.29407717641508 3.0
    vertex 10.237997029391488 -28.198996734390587 3.0
  endloop
endfacet
facet normal -0.0 -0.0 1.0
  outer loop
    vertex 7.144686722052715 -6.996674327401811 3.0
    vertex 10.237997029391488 -28.198996734390587 3.0
    vertex 7.996812194864405 -6.0042480561738865 3.0
  endloop
endfacet
facet normal -0.0 -0.0 1.0
  outer loop
    vertex 7.996812194864405 -6.0042480561738865 3.0
    vertex 10.237997029391488 -28.198996734390587 3.0
    vertex 8.712109993886758 -4.909087436012766 3.0
  endloop
endfacet
facet normal -0.0 -0.0 1.0
  outer loop
    vertex 8.712109993886758 -4.909087436012766 3.0
    vertex 10.237997029391488 -28.198996734390587 3.0
    vertex 9.278341175460488 -3.7299309687652973 3.0
  endloop
endfacet
facet normal -0.0 -0.0 1.0
  outer loop
    vertex 9.278341175460488 -3.7299309687652973 3.0
    vertex 10.237997029391488 -28.198996734390587 3.0
    vertex 9.685817367079924 -2.4869543485100185 3.0
  endloop
endfacet
facet normal -0.0 -0.0 1.0
  outer loop
    vertex 9.685817367079924 -2.4869543485100185 3.0
    vertex 10.237997029391488 -28.198996734390587 3.0
    vertex 9.927566538132712 -1.201425249837715 3.0
  endloop
endfacet
facet normal -0.0 -0.0 1.0
  outer loop
    vertex 9.927566538132712 -1.201425249837715 3.0
    vertex 10.237997029391488 -28.198996734390587 3.0
    vertex 9.999452293276606 0.1046605679573113 3.0
  endloop
endfacet
facet normal -0.0 -0.0 1.0
  outer loop
    vertex -10.237997029391503 28.19899673439058 3.0
    vertex -9.927566538132712 1.2014252498377134 3.0
    vertex -6.4697018773848685 29.29407717641508 3.0
  endloop
endfacet
facet normal -0.0 -0.0 1.0
  outer loop
    vertex -9.927566538132712 1.2014252498377134 3.0
    vertex -10.237997029391503 28.19899673439058 3.0
    vertex -9.999452293276606 -0.1046605679573113 3.0
  endloop
endfacet
facet normal -0.0 -0.0 1.0
  outer loop
    vertex -6.4697018773848685 29.29407717641508 3.0
    vertex -9.927566538132712 1.2014252498377134 3.0
    vertex -9.685817367079924 2.4869543485100136 3.0
  endloop
endfacet
facet normal -0.0 -0.0 1.0
  outer loop
    vertex -6.4697018773848685 29.29407717641508 3.0
    vertex -9.685817367079924 2.4869543485100136 3.0
    vertex -9.278341175460492 3.729930968765293 3.0
  endloop
endfacet
facet normal -0.0 -0.0 1.0
  outer loop
    vertex -6.4697018773848685 29.29407717641508 3.0
    vertex -9.278341175460492 3.729930968765293 3.0
    vertex -8.712109993886761 4.909087436012763 3.0
  endloop
endfacet
facet normal -0.0 -0.0 1.0
  outer loop
    vertex -6.4697018773848685 29.29407717641508 3.0
    vertex -8.712109993886761 4.909087436012763 3.0
    vertex -7.9968121948644075 6.004248056173884 3.0
  endloop
endfacet
facet normal -0.0 -0.0 1.0
  outer loop
    vertex -6.4697018773848685 29.29407717641508 3.0
    vertex -7.9968121948644075 6.004248056173884 3.0
    vertex -7.144686722052715 6.996674327401811 3.0
  endloop
endfacet
facet normal -0.0 -0.0 1.0
  outer loop
    vertex -6.4697018773848685 29.29407717641508 3.0
    vertex -7.144686722052715 6.996674327401811 3.0
    vertex -6.170313678545309 7.869385561043289 3.0
  endloop
endfacet
facet normal -0.0 -0.0 1.0
  outer loop
    vertex -6.4697018773848685 29.29407717641508 3.0
    vertex -6.170313678545309 7.869385561043289 3.0
    vertex -2.5907083325159457 29.887927836098516 3.0
  endloop
endfacet
facet normal -0.0 -0.0 1.0
  outer loop
    vertex -2.5907083325159457 29.887927836098516 3.0
    vertex -6.170313678545309 7.869385561043289 3.0
    vertex -5.090364857263845 8.607449425929449 3.0
  endloop
endfacet
facet normal -0.0 -0.0 1.0
  outer loop
    vertex -2.5907083325159457 29.887927836098516 3.0
    vertex -5.090364857263845 8.607449425929449 3.0
    vertex -3.9233184819588294 9.198237444702121 3.0
  endloop
endfacet
facet normal -0.0 -0.0 1.0
  outer loop
    vertex -2.5907083325159457 29.887927836098516 3.0
    vertex -3.9233184819588294 9.198237444702121 3.0
    vertex -2.689143039678115 9.631641070562727 3.0
  endloop
endfacet
facet normal -0.0 -0.0 1.0
  outer loop
    vertex -2.5907083325159457 29.887927836098516 3.0
    vertex -2.689143039678115 9.631641070562727 3.0
    vertex -1.4089556144172013 9.900244647310599 3.0
  endloop
endfacet
facet normal -0.0 -0.0 1.0
  outer loop
    vertex -2.5907083325159457 29.887927836098516 3.0
    vertex -1.4089556144172013 9.900244647310599 3.0
    vertex 1.3326129502023785 29.970387764007206 3.0
  endloop
endfacet
facet normal -0.0 -0.0 1.0
  outer loop
    vertex 1.3326129502023785 29.970387764007206 3.0
    vertex -1.4089556144172013 9.900244647310599 3.0
    vertex -0.10466056795731342 9.999452293276606 3.0
  endloop
endfacet
facet normal -0.0 -0.0 1.0
  outer loop
    vertex 1.3326129502023785 29.970387764007206 3.0
    vertex -0.10466056795731342 9.999452293276606 3.0
    vertex 1.2014252498377134 9.927566538132712 3.0
  endloop
endfacet
facet normal -0.0 -0.0 1.0
  outer loop
    vertex 1.3326129502023785 29.970387764007206 3.0
    vertex 1.2014252498377134 9.927566538132712 3.0
    vertex 2.48695434851001 9.685817367079924 3.0
  endloop
endfacet
facet normal -0.0 -0.0 1.0
  outer loop
    vertex 1.3326129502023785 29.970387764007206 3.0
    vertex 2.48695434851001 9.685817367079924 3.0
    vertex 5.23313285587263 29.540046047912423 3.0
  endloop
endfacet
facet normal -0.0 -0.0 1.0
  outer loop
    vertex 5.23313285587263 29.540046047912423 3.0
    vertex 2.48695434851001 9.685817367079924 3.0
    vertex 3.729930968765291 9.278341175460492 3.0
  endloop
endfacet
facet normal -0.0 -0.0 1.0
  outer loop
    vertex 5.23313285587263 29.540046047912423 3.0
    vertex 3.729930968765291 9.278341175460492 3.0
    vertex 4.909087436012761 8.712109993886763 3.0
  endloop
endfacet
facet normal -0.0 -0.0 1.0
  outer loop
    vertex 5.23313285587263 29.540046047912423 3.0
    vertex 4.909087436012761 8.712109993886763 3.0
    vertex 6.004248056173884 7.9968121948644075 3.0
  endloop
endfacet
facet normal -0.0 -0.0 1.0
  outer loop
    vertex 5.23313285587263 29.540046047912423 3.0
    vertex 6.004248056173884 7.9968121948644075 3.0
    vertex 9.044112407480364 28.604265953889808 3.0
  endloop
endfacet
facet normal -0.0 -0.0 1.0
  outer loop
    vertex 9.044112407480364 28.604265953889808 3.0
    vertex 6.004248056173884 7.9968121948644075 3.0
    vertex 6.99667432740181 7.144686722052715 3.0
  endloop
endfacet
facet normal -0.0 -0.0 1.0
  outer loop
    vertex 9.044112407480364 28.604265953889808 3.0
    vertex 6.99667432740181 7.144686722052715 3.0
    vertex 7.869385561043289 6.17031367854531 3.0
  endloop
endfacet
facet normal -0.0 -0.0 1.0
  outer loop
    vertex 9.044112407480364 28.604265953889808 3.0
    vertex 7.869385561043289 6.17031367854531 3.0
    vertex 8.607449425929453 5.090364857263838 3.0
  endloop
endfacet
facet normal -0.0 -0.0 1.0
  outer loop
    vertex 9.044112407480364 28.604265953889808 3.0
    vertex 8.607449425929453 5.090364857263838 3.0
    vertex 9.198237444702125 3.9233184819588236 3.0
  endloop
endfacet
facet normal -0.0 -0.0 1.0
  outer loop
    vertex 9.044112407480364 28.604265953889808 3.0
    vertex 9.198237444702125 3.9233184819588236 3.0
    vertex 12.700344688294424 27.17905893879535 3.0
  endloop
endfacet
facet normal -0.0 -0.0 1.0
  outer loop
    vertex 12.700344688294424 27.17905893879535 3.0
    vertex 9.198237444702125 3.9233184819588236 3.0
    vertex 9.631641070562727 2.689143039678109 3.0
  endloop
endfacet
facet normal -0.0 -0.0 1.0
  outer loop
    vertex 12.700344688294424 27.17905893879535 3.0
    vertex 9.631641070562727 2.689143039678109 3.0
    vertex 9.900244647310599 1.4089556144171977 3.0
  endloop
endfacet
facet normal -0.0 -0.0 1.0
  outer loop
    vertex 12.700344688294424 27.17905893879535 3.0
    vertex 9.900244647310599 1.4089556144171977 3.0
    vertex 9.999452293276606 0.1046605679573113 3.0
  endloop
endfacet
facet normal -0.0 -0.0 1.0
  outer loop
    vertex 12.700344688294424 27.17905893879535 3.0
    vertex 9.999452293276606 0.1046605679573113 3.0
    vertex 10.237997029391488 -28.198996734390587 3.0
  endloop
endfacet
facet normal -0.0 -0.0 1.0
  outer loop
    vertex 12.700344688294424 27.17905893879535 3.0
    vertex 10.237997029391488 -28.198996734390587 3.0
    vertex 13.831117213716203 -26.621423640001737 3.0
  endloop
endfacet
facet normal -0.0 -0.0 1.0
  outer loop
    vertex 12.700344688294424 27.17905893879535 3.0
    vertex 13.831117213716203 -26.621423640001737 3.0
    vertex 16.139270550290988 25.28881068979935 3.0
  endloop
endfacet
facet normal -0.0 -0.0 1.0
  outer loop
    vertex 16.139270550290988 25.28881068979935 3.0
    vertex 13.831117213716203 -26.621423640001737 3.0
    vertex 17.18758314780407 -24.588350606279416 3.0
  endloop
endfacet
facet normal -0.0 -0.0 1.0
  outer loop
    vertex 16.139270550290988 25.28881068979935 3.0
    vertex 17.18758314780407 -24.588350606279416 3.0
    vertex 19.302049018520915 22.965863878517954 3.0
  endloop
endfacet
facet normal -0.0 -0.0 1.0
  outer loop
    vertex 19.302049018520915 22.965863878517954 3.0
    vertex 17.18758314780407 -24.588350606279416 3.0
    vertex 20.24996476893469 -22.134564076504954 3.0
  endloop
endfacet
facet normal -0.0 -0.0 1.0
  outer loop
    vertex 19.302049018520915 22.965863878517954 3.0
    vertex 20.24996476893469 -22.134564076504954 3.0
    vertex 22.134564076504954 20.24996476893469 3.0
  endloop
endfacet
facet normal -0.0 -0.0 1.0
  outer loop
    vertex 22.134564076504954 20.24996476893469 3.0
    vertex 20.24996476893469 -22.134564076504954 3.0
    vertex 22.96586387851795 -19.30204901852092 3.0
  endloop
endfacet
facet normal -0.0 -0.0 1.0
  outer loop
    vertex 22.134564076504954 20.24996476893469 3.0
    vertex 22.96586387851795 -19.30204901852092 3.0
    vertex 24.588350606279416 17.18758314780407 3.0
  endloop
endfacet
facet normal -0.0 -0.0 1.0
  outer loop
    vertex 24.588350606279416 17.18758314780407 3.0
    vertex 22.96586387851795 -19.30204901852092 3.0
    vertex 25.288810689799345 -16.139270550291 3.0
  endloop
endfacet
facet normal -0.0 -0.0 1.0
  outer loop
    vertex 24.588350606279416 17.18758314780407 3.0
    vertex 25.288810689799345 -16.139270550291 3.0
    vertex 26.621423640001737 13.831117213716201 3.0
  endloop
endfacet
facet normal -0.0 -0.0 1.0
  outer loop
    vertex 26.621423640001737 13.831117213716201 3.0
    vertex 25.288810689799345 -16.139270550291 3.0
    vertex 27.179058938795343 -12.70034468829444 3.0
  endloop
endfacet
facet normal -0.0 -0.0 1.0
  outer loop
    vertex 26.621423640001737 13.831117213716201 3.0
    vertex 27.179058938795343 -12.70034468829444 3.0
    vertex 28.198996734390587 10.237997029391488 3.0
  endloop
endfacet
facet normal -0.0 -0.0 1.0
  outer loop
    vertex 28.198996734390587 10.237997029391488 3.0
    vertex 27.179058938795343 -12.70034468829444 3.0
    vertex 28.6042659538898 -9.04411240748038 3.0
  endloop
endfacet
facet normal -0.0 -0.0 1.0
  outer loop
    vertex 28.198996734390587 10.237997029391488 3.0
    vertex 28.6042659538898 -9.04411240748038 3.0
    vertex 29.29407717641508 6.469701877384862 3.0
  endloop
endfacet
facet normal -0.0 -0.0 1.0
  outer loop
    vertex 29.29407717641508 6.469701877384862 3.0
    vertex 28.6042659538898 -9.04411240748038 3.0
    vertex 29.540046047912416 -5.233132855872654 3.0
  endloop
endfacet
facet normal -0.0 -0.0 1.0
  outer loop
    vertex 29.29407717641508 6.469701877384862 3.0
    vertex 29.540046047912416 -5.233132855872654 3.0
    vertex 29.887927836098516 2.590708332515943 3.0
  endloop
endfacet
facet normal -0.0 -0.0 1.0
  outer loop
    vertex 29.887927836098516 2.590708332515943 3.0
    vertex 29.540046047912416 -5.233132855872654 3.0
    vertex 29.970387764007206 -1.3326129502024067 3.0
  endloop
endfacet
facet normal -0.7655287959505983 0.6434016339506974 0.0
  outer loop
    vertex -22.965863878517954 19.302049018520915 3.0
    vertex -25.288810689799348 16.139270550290995 0.0
    vertex -25.288810689799348 16.139270550290995 3.0
  endloop
endfacet
facet normal -0.8429603563266449 0.5379756850096997 0.0
  outer loop
    vertex -25.288810689799348 16.139270550290995 0.0
    vertex -22.965863878517954 19.302049018520915 3.0
    vertex -22.965863878517954 19.302049018520915 0.0
  endloop
endfacet
facet normal -0.6749988256311573 0.7378188025501644 0.0
  outer loop
    vertex -20.24996476893471 22.134564076504937 3.0
    vertex -22.965863878517954 19.302049018520915 0.0
    vertex -22.965863878517954 19.302049018520915 3.0
  endloop
endfacet
facet normal -0.7655287959505983 0.6434016339506974 0.0
  outer loop
    vertex -22.965863878517954 19.302049018520915 0.0
    vertex -20.24996476893471 22.134564076504937 3.0
    vertex -20.24996476893471 22.134564076504937 0.0
  endloop
endfacet
facet normal -0.6749988256311573 0.7378188025501644 0.0
  outer loop
    vertex -20.24996476893471 22.134564076504937 3.0
    vertex -17.187583147804084 24.58835060627941 0.0
    vertex -20.24996476893471 22.134564076504937 0.0
  endloop
endfacet
facet normal -0.5729194382601365 0.8196116868759802 0.0
  outer loop
    vertex -17.187583147804084 24.58835060627941 0.0
    vertex -20.24996476893471 22.134564076504937 3.0
    vertex -17.187583147804084 24.58835060627941 3.0
  endloop
endfacet
facet normal -0.5729194382601365 0.8196116868759802 0.0
  outer loop
    vertex -17.187583147804084 24.58835060627941 3.0
    vertex -13.831117213716215 26.62142364000173 0.0
    vertex -17.187583147804084 24.58835060627941 0.0
  endloop
endfacet
facet normal -0.4610372404572067 0.8873807880000579 0.0
  outer loop
    vertex -13.831117213716215 26.62142364000173 0.0
    vertex -17.187583147804084 24.58835060627941 3.0
    vertex -13.831117213716215 26.62142364000173 3.0
  endloop
endfacet
facet normal -0.4610372404572067 0.8873807880000579 0.0
  outer loop
    vertex -13.831117213716215 26.62142364000173 3.0
    vertex -10.237997029391503 28.19899673439058 0.0
    vertex -13.831117213716215 26.62142364000173 0.0
  endloop
endfacet
facet normal -0.34126656764638363 0.9399665578130194 0.0
  outer loop
    vertex -10.237997029391503 28.19899673439058 0.0
    vertex -13.831117213716215 26.62142364000173 3.0
    vertex -10.237997029391503 28.19899673439058 3.0
  endloop
endfacet
facet normal -0.34126656764638363 0.9399665578130194 0.0
  outer loop
    vertex -10.237997029391503 28.19899673439058 3.0
    vertex -6.4697018773848685 29.29407717641508 0.0
    vertex -10.237997029391503 28.19899673439058 0.0
  endloop
endfacet
facet normal -0.21565672924616294 0.9764692392138358 0.0
  outer loop
    vertex -6.4697018773848685 29.29407717641508 0.0
    vertex -10.237997029391503 28.19899673439058 3.0
    vertex -6.4697018773848685 29.29407717641508 3.0
  endloop
endfacet
facet normal -0.21565672924616294 0.9764692392138358 0.0
  outer loop
    vertex -6.4697018773848685 29.29407717641508 3.0
    vertex -2.5907083325159457 29.887927836098516 0.0
    vertex -6.4697018773848685 29.29407717641508 0.0
  endloop
endfacet
facet normal -0.0863569444171977 0.9962642612032838 0.0
  outer loop
    vertex -2.5907083325159457 29.887927836098516 0.0
    vertex -6.4697018773848685 29.29407717641508 3.0
    vertex -2.5907083325159457 29.887927836098516 3.0
  endloop
endfacet
facet normal -0.0863569444171977 0.9962642612032838 0.0
  outer loop
    vertex -2.5907083325159457 29.887927836098516 3.0
    vertex 1.3326129502023785 29.970387764007206 0.0
    vertex -2.5907083325159457 29.887927836098516 0.0
  endloop
endfacet
facet normal 0.04442043167341304 0.9990129254669068 0.0
  outer loop
    vertex 1.3326129502023785 29.970387764007206 0.0
    vertex -2.5907083325159457 29.887927836098516 3.0
    vertex 1.3326129502023785 29.970387764007206 3.0
  endloop
endfacet
facet normal 0.04442043167341304 0.9990129254669068 0.0
  outer loop
    vertex 1.3326129502023785 29.970387764007206 3.0
    vertex 5.23313285587263 29.540046047912423 0.0
    vertex 1.3326129502023785 29.970387764007206 0.0
  endloop
endfacet
facet normal 0.1744377618624212 0.9846682015970807 0.0
  outer loop
    vertex 5.23313285587263 29.540046047912423 0.0
    vertex 1.3326129502023785 29.970387764007206 3.0
    vertex 5.23313285587263 29.540046047912423 3.0
  endloop
endfacet
facet normal 0.1744377618624212 0.9846682015970807 0.0
  outer loop
    vertex 5.23313285587263 29.540046047912423 3.0
    vertex 9.044112407480364 28.604265953889808 0.0
    vertex 5.23313285587263 29.540046047912423 0.0
  endloop
endfacet
facet normal 0.3014704135826791 0.953475531796327 0.0
  outer loop
    vertex 9.044112407480364 28.604265953889808 0.0
    vertex 5.23313285587263 29.540046047912423 3.0
    vertex 9.044112407480364 28.604265953889808 3.0
  endloop
endfacet
facet normal 0.3014704135826791 0.953475531796327 0.0
  outer loop
    vertex 9.044112407480364 28.604265953889808 3.0
    vertex 12.700344688294424 27.17905893879535 0.0
    vertex 9.044112407480364 28.604265953889808 0.0
  endloop
endfacet
facet normal 0.4233448229431474 0.9059686312931784 0.0
  outer loop
    vertex 12.700344688294424 27.17905893879535 0.0
    vertex 9.044112407480364 28.604265953889808 3.0
    vertex 12.700344688294424 27.17905893879535 3.0
  endloop
endfacet
facet normal 0.4233448229431474 0.9059686312931784 0.0
  outer loop
    vertex 12.700344688294424 27.17905893879535 3.0
    vertex 16.139270550290988 25.28881068979935 0.0
    vertex 12.700344688294424 27.17905893879535 0.0
  endloop
endfacet
facet normal 0.5379756850096995 0.8429603563266452 0.0
  outer loop
    vertex 16.139270550290988 25.28881068979935 0.0
    vertex 12.700344688294424 27.17905893879535 3.0
    vertex 16.139270550290988 25.28881068979935 3.0
  endloop
endfacet
facet normal 0.5379756850096995 0.8429603563266452 0.0
  outer loop
    vertex 16.139270550290988 25.28881068979935 3.0
    vertex 19.302049018520915 22.965863878517954 0.0
    vertex 16.139270550290988 25.28881068979935 0.0
  endloop
endfacet
facet normal 0.6434016339506977 0.765528795950598 0.0
  outer loop
    vertex 19.302049018520915 22.965863878517954 0.0
    vertex 16.139270550290988 25.28881068979935 3.0
    vertex 19.302049018520915 22.965863878517954 3.0
  endloop
endfacet
facet normal 0.6434016339506977 0.765528795950598 0.0
  outer loop
    vertex 19.302049018520915 22.965863878517954 3.0
    vertex 22.134564076504954 20.24996476893469 0.0
    vertex 19.302049018520915 22.965863878517954 0.0
  endloop
endfacet
facet normal 0.7378188025501651 0.6749988256311567 0.0
  outer loop
    vertex 22.134564076504954 20.24996476893469 0.0
    vertex 19.302049018520915 22.965863878517954 3.0
    vertex 22.134564076504954 20.24996476893469 3.0
  endloop
endfacet
facet normal 0.7378188025501651 0.6749988256311567 0.0
  outer loop
    vertex 22.134564076504954 20.24996476893469 0.0
    vertex 24.588350606279416 17.18758314780407 3.0
    vertex 24.588350606279416 17.18758314780407 0.0
  endloop
endfacet
facet normal 0.8196116868759804 0.5729194382601361 0.0
  outer loop
    vertex 24.588350606279416 17.18758314780407 3.0
    vertex 22.134564076504954 20.24996476893469 0.0
    vertex 22.134564076504954 20.24996476893469 3.0
  endloop
endfacet
facet normal 0.8196116868759804 0.5729194382601361 0.0
  outer loop
    vertex 24.588350606279416 17.18758314780407 0.0
    vertex 26.621423640001737 13.831117213716201 3.0
    vertex 26.621423640001737 13.831117213716201 0.0
  endloop
endfacet
facet normal 0.8873807880000579 0.4610372404572067 0.0
  outer loop
    vertex 26.621423640001737 13.831117213716201 3.0
    vertex 24.588350606279416 17.18758314780407 0.0
    vertex 24.588350606279416 17.18758314780407 3.0
  endloop
endfacet
facet normal 0.8873807880000579 0.4610372404572067 0.0
  outer loop
    vertex 26.621423640001737 13.831117213716201 0.0
    vertex 28.198996734390587 10.237997029391488 3.0
    vertex 28.198996734390587 10.237997029391488 0.0
  endloop
endfacet
facet normal 0.9399665578130195 0.3412665676463833 0.0
  outer loop
    vertex 28.198996734390587 10.237997029391488 3.0
    vertex 26.621423640001737 13.831117213716201 0.0
    vertex 26.621423640001737 13.831117213716201 3.0
  endloop
endfacet
facet normal 0.9399665578130195 0.3412665676463833 0.0
  outer loop
    vertex 28.198996734390587 10.237997029391488 0.0
    vertex 29.29407717641508 6.469701877384862 3.0
    vertex 29.29407717641508 6.469701877384862 0.0
  endloop
endfacet
facet normal 0.9764692392138357 0.21565672924616255 0.0
  outer loop
    vertex 29.29407717641508 6.469701877384862 3.0
    vertex 28.198996734390587 10.237997029391488 0.0
    vertex 28.198996734390587 10.237997029391488 3.0
  endloop
endfacet
facet normal 0.9764692392138357 0.21565672924616255 0.0
  outer loop
    vertex 29.29407717641508 6.469701877384862 0.0
    vertex 29.887927836098516 2.590708332515943 3.0
    vertex 29.887927836098516 2.590708332515943 0.0
  endloop
endfacet
facet normal 0.9962642612032838 0.0863569444171977 0.0
  outer loop
    vertex 29.887927836098516 2.590708332515943 3.0
    vertex 29.29407717641508 6.469701877384862 0.0
    vertex 29.29407717641508 6.469701877384862 3.0
  endloop
endfacet
facet normal 0.9962642612032838 0.0863569444171977 0.0
  outer loop
    vertex 29.887927836098516 2.590708332515943 0.0
    vertex 29.970387764007206 -1.3326129502024067 3.0
    vertex 29.970387764007206 -1.3326129502024067 0.0
  endloop
endfacet
facet normal 0.9990129254669068 -0.04442043167341388 0.0
  outer loop
    vertex 29.970387764007206 -1.3326129502024067 3.0
    vertex 29.887927836098516 2.590708332515943 0.0
    vertex 29.887927836098516 2.590708332515943 3.0
  endloop
endfacet
facet normal 0.9990129254669068 -0.04442043167341388 0.0
  outer loop
    vertex 29.970387764007206 -1.3326129502024067 0.0
    vertex 29.540046047912416 -5.233132855872654 3.0
    vertex 29.540046047912416 -5.233132855872654 0.0
  endloop
endfacet
facet normal 0.9846682015970807 -0.17443776186242219 0.0
  outer loop
    vertex 29.540046047912416 -5.233132855872654 3.0
    vertex 29.970387764007206 -1.3326129502024067 0.0
    vertex 29.970387764007206 -1.3326129502024067 3.0
  endloop
endfacet
facet normal 0.9846682015970807 -0.17443776186242219 0.0
  outer loop
    vertex 29.540046047912416 -5.233132855872654 0.0
    vertex 28.6042659538898 -9.04411240748038 3.0
    vertex 28.6042659538898 -9.04411240748038 0.0
  endloop
endfacet
facet normal 0.9534755317963269 -0.30147041358267934 0.0
  outer loop
    vertex 28.6042659538898 -9.04411240748038 3.0
    vertex 29.540046047912416 -5.233132855872654 0.0
    vertex 29.540046047912416 -5.233132855872654 3.0
  endloop
endfacet
facet normal 0.9534755317963269 -0.30147041358267934 0.0
  outer loop
    vertex 28.6042659538898 -9.04411240748038 0.0
    vertex 27.179058938795343 -12.70034468829444 3.0
    vertex 27.179058938795343 -12.70034468829444 0.0
  endloop
endfacet
facet normal 0.9059686312931782 -0.4233448229431479 0.0
  outer loop
    vertex 27.179058938795343 -12.70034468829444 3.0
    vertex 28.6042659538898 -9.04411240748038 0.0
    vertex 28.6042659538898 -9.04411240748038 3.0
  endloop
endfacet
facet normal 0.9059686312931782 -0.4233448229431479 0.0
  outer loop
    vertex 27.179058938795343 -12.70034468829444 0.0
    vertex 25.288810689799345 -16.139270550291 3.0
    vertex 25.288810689799345 -16.139270550291 0.0
  endloop
endfacet
facet normal 0.8429603563266447 -0.5379756850097 0.0
  outer loop
    vertex 25.288810689799345 -16.139270550291 3.0
    vertex 27.179058938795343 -12.70034468829444 0.0
    vertex 27.179058938795343 -12.70034468829444 3.0
  endloop
endfacet
facet normal 0.8429603563266447 -0.5379756850097 0.0
  outer loop
    vertex 25.288810689799345 -16.139270550291 0.0
    vertex 22.96586387851795 -19.30204901852092 3.0
    vertex 22.96586387851795 -19.30204901852092 0.0
  endloop
endfacet
facet normal 0.7655287959505982 -0.6434016339506976 0.0
  outer loop
    vertex 22.96586387851795 -19.30204901852092 3.0
    vertex 25.288810689799345 -16.139270550291 0.0
    vertex 25.288810689799345 -16.139270550291 3.0
  endloop
endfacet
facet normal 0.7655287959505982 -0.6434016339506976 0.0
  outer loop
    vertex 22.96586387851795 -19.30204901852092 0.0
    vertex 20.24996476893469 -22.134564076504954 3.0
    vertex 20.24996476893469 -22.134564076504954 0.0
  endloop
endfacet
facet normal 0.6749988256311567 -0.7378188025501651 0.0
  outer loop
    vertex 20.24996476893469 -22.134564076504954 3.0
    vertex 22.96586387851795 -19.30204901852092 0.0
    vertex 22.96586387851795 -19.30204901852092 3.0
  endloop
endfacet
facet normal 0.6749988256311567 -0.7378188025501651 0.0
  outer loop
    vertex 20.24996476893469 -22.134564076504954 3.0
    vertex 17.18758314780407 -24.588350606279416 0.0
    vertex 20.24996476893469 -22.134564076504954 0.0
  endloop
endfacet
facet normal 0.572919438260136 -0.8196116868759805 0.0
  outer loop
    vertex 17.18758314780407 -24.588350606279416 0.0
    vertex 20.24996476893469 -22.134564076504954 3.0
    vertex 17.18758314780407 -24.588350606279416 3.0
  endloop
endfacet
facet normal 0.572919438260136 -0.8196116868759805 0.0
  outer loop
    vertex 17.18758314780407 -24.588350606279416 3.0
    vertex 13.831117213716203 -26.621423640001737 0.0
    vertex 17.18758314780407 -24.588350606279416 0.0
  endloop
endfacet
facet normal 0.46103724045720673 -0.8873807880000579 0.0
  outer loop
    vertex 13.831117213716203 -26.621423640001737 0.0
    vertex 17.18758314780407 -24.588350606279416 3.0
    vertex 13.831117213716203 -26.621423640001737 3.0
  endloop
endfacet
facet normal 0.46103724045720673 -0.8873807880000579 0.0
  outer loop
    vertex 13.831117213716203 -26.621423640001737 3.0
    vertex 10.237997029391488 -28.198996734390587 0.0
    vertex 13.831117213716203 -26.621423640001737 0.0
  endloop
endfacet
facet normal 0.3412665676463832 -0.9399665578130196 0.0
  outer loop
    vertex 10.237997029391488 -28.198996734390587 0.0
    vertex 13.831117213716203 -26.621423640001737 3.0
    vertex 10.237997029391488 -28.198996734390587 3.0
  endloop
endfacet
facet normal 0.3412665676463832 -0.9399665578130196 0.0
  outer loop
    vertex 10.237997029391488 -28.198996734390587 3.0
    vertex 6.469701877384862 -29.29407717641508 0.0
    vertex 10.237997029391488 -28.198996734390587 0.0
  endloop
endfacet
facet normal 0.2156567292461617 -0.976469239213836 0.0
  outer loop
    vertex 6.469701877384862 -29.29407717641508 0.0
    vertex 10.237997029391488 -28.198996734390587 3.0
    vertex 6.469701877384862 -29.29407717641508 3.0
  endloop
endfacet
facet normal 0.2156567292461617 -0.976469239213836 0.0
  outer loop
    vertex 6.469701877384862 -29.29407717641508 3.0
    vertex 2.5907083325159315 -29.887927836098513 0.0
    vertex 6.469701877384862 -29.29407717641508 0.0
  endloop
endfacet
facet normal 0.08635694441719756 -0.9962642612032839 0.0
  outer loop
    vertex 2.5907083325159315 -29.887927836098513 0.0
    vertex 6.469701877384862 -29.29407717641508 3.0
    vertex 2.5907083325159315 -29.887927836098513 3.0
  endloop
endfacet
facet normal 0.08635694441719756 -0.9962642612032839 0.0
  outer loop
    vertex 2.5907083325159315 -29.887927836098513 3.0
    vertex -1.3326129502023898 -29.970387764007206 0.0
    vertex 2.5907083325159315 -29.887927836098513 0.0
  endloop
endfacet
facet normal -0.04442043167341315 -0.9990129254669068 0.0
  outer loop
    vertex -1.3326129502023898 -29.970387764007206 0.0
    vertex 2.5907083325159315 -29.887927836098513 3.0
    vertex -1.3326129502023898 -29.970387764007206 3.0
  endloop
endfacet
facet normal -0.04442043167341315 -0.9990129254669068 0.0
  outer loop
    vertex -1.3326129502023898 -29.970387764007206 3.0
    vertex -5.233132855872633 -29.540046047912416 0.0
    vertex -1.3326129502023898 -29.970387764007206 0.0
  endloop
endfacet
facet normal -0.17443776186242096 -0.9846682015970807 0.0
  outer loop
    vertex -5.233132855872633 -29.540046047912416 0.0
    vertex -1.3326129502023898 -29.970387764007206 3.0
    vertex -5.233132855872633 -29.540046047912416 3.0
  endloop
endfacet
facet normal -0.17443776186242096 -0.9846682015970807 0.0
  outer loop
    vertex -5.233132855872633 -29.540046047912416 3.0
    vertex -9.044112407480378 -28.604265953889808 0.0
    vertex -5.233132855872633 -29.540046047912416 0.0
  endloop
endfacet
facet normal -0.3014704135826781 -0.9534755317963272 0.0
  outer loop
    vertex -9.044112407480378 -28.604265953889808 0.0
    vertex -5.233132855872633 -29.540046047912416 3.0
    vertex -9.044112407480378 -28.604265953889808 3.0
  endloop
endfacet
facet normal -0.3014704135826781 -0.9534755317963272 0.0
  outer loop
    vertex -9.044112407480378 -28.604265953889808 3.0
    vertex -12.700344688294436 -27.17905893879535 0.0
    vertex -9.044112407480378 -28.604265953889808 0.0
  endloop
endfacet
facet normal -0.4233448229431485 -0.9059686312931781 0.0
  outer loop
    vertex -12.700344688294436 -27.17905893879535 0.0
    vertex -9.044112407480378 -28.604265953889808 3.0
    vertex -12.700344688294436 -27.17905893879535 3.0
  endloop
endfacet
facet normal -0.4233448229431485 -0.9059686312931781 0.0
  outer loop
    vertex -12.700344688294436 -27.17905893879535 3.0
    vertex -16.139270550290995 -25.288810689799345 0.0
    vertex -12.700344688294436 -27.17905893879535 0.0
  endloop
endfacet
facet normal -0.5379756850097004 -0.8429603563266446 0.0
  outer loop
    vertex -16.139270550290995 -25.288810689799345 0.0
    vertex -12.700344688294436 -27.17905893879535 3.0
    vertex -16.139270550290995 -25.288810689799345 3.0
  endloop
endfacet
facet normal -0.5379756850097004 -0.8429603563266446 0.0
  outer loop
    vertex -16.139270550290995 -25.288810689799345 3.0
    vertex -19.30204901852092 -22.96586387851795 0.0
    vertex -16.139270550290995 -25.288810689799345 0.0
  endloop
endfacet
facet normal -0.6434016339506969 -0.7655287959505988 0.0
  outer loop
    vertex -19.30204901852092 -22.96586387851795 0.0
    vertex -16.139270550290995 -25.288810689799345 3.0
    vertex -19.30204901852092 -22.96586387851795 3.0
  endloop
endfacet
facet normal -0.6434016339506969 -0.7655287959505988 0.0
  outer loop
    vertex -19.30204901852092 -22.96586387851795 3.0
    vertex -22.134564076504947 -20.249964768934703 0.0
    vertex -19.30204901852092 -22.96586387851795 0.0
  endloop
endfacet
facet normal -0.7378188025501645 -0.6749988256311572 0.0
  outer loop
    vertex -22.134564076504947 -20.249964768934703 0.0
    vertex -19.30204901852092 -22.96586387851795 3.0
    vertex -22.134564076504947 -20.249964768934703 3.0
  endloop
endfacet
facet normal -0.8196116868759803 -0.5729194382601361 0.0
  outer loop
    vertex -24.58835060627941 -17.187583147804084 3.0
    vertex -22.134564076504947 -20.249964768934703 0.0
    vertex -22.134564076504947 -20.249964768934703 3.0
  endloop
endfacet
facet normal -0.7378188025501645 -0.6749988256311572 0.0
  outer loop
    vertex -22.134564076504947 -20.249964768934703 0.0
    vertex -24.58835060627941 -17.187583147804084 3.0
    vertex -24.58835060627941 -17.187583147804084 0.0
  endloop
endfacet
facet normal -0.8873807880000577 -0.46103724045720706 0.0
  outer loop
    vertex -26.62142364000173 -13.831117213716215 3.0
    vertex -24.58835060627941 -17.187583147804084 0.0
    vertex -24.58835060627941 -17.187583147804084 3.0
  endloop
endfacet
facet normal -0.8196116868759803 -0.5729194382601361 0.0
  outer loop
    vertex -24.58835060627941 -17.187583147804084 0.0
    vertex -26.62142364000173 -13.831117213716215 3.0
    vertex -26.62142364000173 -13.831117213716215 0.0
  endloop
endfacet
facet normal -0.9399665578130194 -0.34126656764638336 0.0
  outer loop
    vertex -28.198996734390587 -10.237997029391495 3.0
    vertex -26.62142364000173 -13.831117213716215 0.0
    vertex -26.62142364000173 -13.831117213716215 3.0
  endloop
endfacet
facet normal -0.8873807880000577 -0.46103724045720706 0.0
  outer loop
    vertex -26.62142364000173 -13.831117213716215 0.0
    vertex -28.198996734390587 -10.237997029391495 3.0
    vertex -28.198996734390587 -10.237997029391495 0.0
  endloop
endfacet
facet normal -0.9764692392138359 -0.21565672924616242 0.0
  outer loop
    vertex -29.29407717641508 -6.469701877384862 3.0
    vertex -28.198996734390587 -10.237997029391495 0.0
    vertex -28.198996734390587 -10.237997029391495 3.0
  endloop
endfacet
facet normal -0.9399665578130194 -0.34126656764638336 0.0
  outer loop
    vertex -28.198996734390587 -10.237997029391495 0.0
    vertex -29.29407717641508 -6.469701877384862 3.0
    vertex -29.29407717641508 -6.469701877384862 0.0
  endloop
endfacet
facet normal -0.9962642612032838 -0.08635694441719781 0.0
  outer loop
    vertex -29.887927836098516 -2.5907083325159457 3.0
    vertex -29.29407717641508 -6.469701877384862 0.0
    vertex -29.29407717641508 -6.469701877384862 3.0
  endloop
endfacet
facet normal -0.9764692392138359 -0.21565672924616242 0.0
  outer loop
    vertex -29.29407717641508 -6.469701877384862 0.0
    vertex -29.887927836098516 -2.5907083325159457 3.0
    vertex -29.887927836098516 -2.5907083325159457 0.0
  endloop
endfacet
facet normal -0.9990129254669068 0.044420431673413904 0.0
  outer loop
    vertex -29.970387764007206 1.3326129502023898 3.0
    vertex -29.887927836098516 -2.5907083325159457 0.0
    vertex -29.887927836098516 -2.5907083325159457 3.0
  endloop
endfacet
facet normal -0.9962642612032838 -0.08635694441719781 0.0
  outer loop
    vertex -29.887927836098516 -2.5907083325159457 0.0
    vertex -29.970387764007206 1.3326129502023898 3.0
    vertex -29.970387764007206 1.3326129502023898 0.0
  endloop
endfacet
facet normal -0.9846682015970807 0.17443776186242202 0.0
  outer loop
    vertex -29.540046047912416 5.233132855872633 3.0
    vertex -29.970387764007206 1.3326129502023898 0.0
    vertex -29.970387764007206 1.3326129502023898 3.0
  endloop
endfacet
facet normal -0.9990129254669068 0.044420431673413904 0.0
  outer loop
    vertex -29.970387764007206 1.3326129502023898 0.0
    vertex -29.540046047912416 5.233132855872633 3.0
    vertex -29.540046047912416 5.233132855872633 0.0
  endloop
endfacet
facet normal -0.9534755317963272 0.3014704135826785 0.0
  outer loop
    vertex -28.6042659538898 9.044112407480368 3.0
    vertex -29.540046047912416 5.233132855872633 0.0
    vertex -29.540046047912416 5.233132855872633 3.0
  endloop
endfacet
facet normal -0.9846682015970807 0.17443776186242202 0.0
  outer loop
    vertex -29.540046047912416 5.233132855872633 0.0
    vertex -28.6042659538898 9.044112407480368 3.0
    vertex -28.6042659538898 9.044112407480368 0.0
  endloop
endfacet
facet normal -0.9059686312931786 0.42334482294314707 0.0
  outer loop
    vertex -27.17905893879535 12.700344688294425 3.0
    vertex -28.6042659538898 9.044112407480368 0.0
    vertex -28.6042659538898 9.044112407480368 3.0
  endloop
endfacet
facet normal -0.9534755317963272 0.3014704135826785 0.0
  outer loop
    vertex -28.6042659538898 9.044112407480368 0.0
    vertex -27.17905893879535 12.700344688294425 3.0
    vertex -27.17905893879535 12.700344688294425 0.0
  endloop
endfacet
facet normal -0.8429603563266449 0.5379756850096997 0.0
  outer loop
    vertex -25.288810689799348 16.139270550290995 3.0
    vertex -27.17905893879535 12.700344688294425 0.0
    vertex -27.17905893879535 12.700344688294425 3.0
  endloop
endfacet
facet normal -0.9059686312931786 0.42334482294314707 0.0
  outer loop
    vertex -27.17905893879535 12.700344688294425 0.0
    vertex -25.288810689799348 16.139270550290995 3.0
    vertex -25.288810689799348 16.139270550290995 0.0
  endloop
endfacet
facet normal -0.6004248056173885 -0.7996812194864408 0.0
  outer loop
    vertex 6.004248056173884 7.9968121948644075 3.0
    vertex 4.909087436012761 8.712109993886763 0.0
    vertex 6.004248056173884 7.9968121948644075 0.0
  endloop
endfacet
facet normal -0.4909087436012762 -0.8712109993886764 0.0
  outer loop
    vertex 4.909087436012761 8.712109993886763 0.0
    vertex 6.004248056173884 7.9968121948644075 3.0
    vertex 4.909087436012761 8.712109993886763 3.0
  endloop
endfacet
facet normal -0.4909087436012762 -0.8712109993886764 0.0
  outer loop
    vertex 4.909087436012761 8.712109993886763 3.0
    vertex 3.729930968765291 9.278341175460492 0.0
    vertex 4.909087436012761 8.712109993886763 0.0
  endloop
endfacet
facet normal -0.37299309687652893 -0.9278341175460494 0.0
  outer loop
    vertex 3.729930968765291 9.278341175460492 0.0
    vertex 4.909087436012761 8.712109993886763 3.0
    vertex 3.729930968765291 9.278341175460492 3.0
  endloop
endfacet
facet normal -0.37299309687652893 -0.9278341175460494 0.0
  outer loop
    vertex 3.729930968765291 9.278341175460492 3.0
    vertex 2.48695434851001 9.685817367079924 0.0
    vertex 3.729930968765291 9.278341175460492 0.0
  endloop
endfacet
facet normal -0.24869543485100107 -0.9685817367079929 0.0
  outer loop
    vertex 2.48695434851001 9.685817367079924 0.0
    vertex 3.729930968765291 9.278341175460492 3.0
    vertex 2.48695434851001 9.685817367079924 3.0
  endloop
endfacet
facet normal -0.24869543485100107 -0.9685817367079929 0.0
  outer loop
    vertex 2.48695434851001 9.685817367079924 3.0
    vertex 1.2014252498377134 9.927566538132712 0.0
    vertex 2.48695434851001 9.685817367079924 0.0
  endloop
endfacet
facet normal -0.12014252498377143 -0.9927566538132714 0.0
  outer loop
    vertex 1.2014252498377134 9.927566538132712 0.0
    vertex 2.48695434851001 9.685817367079924 3.0
    vertex 1.2014252498377134 9.927566538132712 3.0
  endloop
endfacet
facet normal -0.12014252498377143 -0.9927566538132714 0.0
  outer loop
    vertex 1.2014252498377134 9.927566538132712 3.0
    vertex -0.10466056795731342 9.999452293276606 0.0
    vertex 1.2014252498377134 9.927566538132712 0.0
  endloop
endfacet
facet normal 0.010466056795731926 -0.999945229327661 0.0
  outer loop
    vertex -0.10466056795731342 9.999452293276606 0.0
    vertex 1.2014252498377134 9.927566538132712 3.0
    vertex -0.10466056795731342 9.999452293276606 3.0
  endloop
endfacet
facet normal 0.010466056795731926 -0.999945229327661 0.0
  outer loop
    vertex -0.10466056795731342 9.999452293276606 3.0
    vertex -1.4089556144172013 9.900244647310599 0.0
    vertex -0.10466056795731342 9.999452293276606 0.0
  endloop
endfacet
facet normal 0.14089556144171939 -0.9900244647310604 0.0
  outer loop
    vertex -1.4089556144172013 9.900244647310599 0.0
    vertex -0.10466056795731342 9.999452293276606 3.0
    vertex -1.4089556144172013 9.900244647310599 3.0
  endloop
endfacet
facet normal 0.14089556144171939 -0.9900244647310604 0.0
  outer loop
    vertex -1.4089556144172013 9.900244647310599 3.0
    vertex -2.689143039678115 9.631641070562727 0.0
    vertex -1.4089556144172013 9.900244647310599 0.0
  endloop
endfacet
facet normal 0.26891430396781124 -0.963164107056273 0.0
  outer loop
    vertex -2.689143039678115 9.631641070562727 0.0
    vertex -1.4089556144172013 9.900244647310599 3.0
    vertex -2.689143039678115 9.631641070562727 3.0
  endloop
endfacet
facet normal 0.26891430396781124 -0.963164107056273 0.0
  outer loop
    vertex -2.689143039678115 9.631641070562727 3.0
    vertex -3.9233184819588294 9.198237444702121 0.0
    vertex -2.689143039678115 9.631641070562727 0.0
  endloop
endfacet
facet normal 0.3923318481958833 -0.9198237444702122 0.0
  outer loop
    vertex -3.9233184819588294 9.198237444702121 0.0
    vertex -2.689143039678115 9.631641070562727 3.0
    vertex -3.9233184819588294 9.198237444702121 3.0
  endloop
endfacet
facet normal 0.3923318481958833 -0.9198237444702122 0.0
  outer loop
    vertex -3.9233184819588294 9.198237444702121 3.0
    vertex -5.090364857263845 8.607449425929449 0.0
    vertex -3.9233184819588294 9.198237444702121 0.0
  endloop
endfacet
facet normal 0.5090364857263848 -0.860744942592945 0.0
  outer loop
    vertex -5.090364857263845 8.607449425929449 0.0
    vertex -3.9233184819588294 9.198237444702121 3.0
    vertex -5.090364857263845 8.607449425929449 3.0
  endloop
endfacet
facet normal 0.5090364857263848 -0.860744942592945 0.0
  outer loop
    vertex -5.090364857263845 8.607449425929449 3.0
    vertex -6.170313678545309 7.869385561043289 0.0
    vertex -5.090364857263845 8.607449425929449 0.0
  endloop
endfacet
facet normal 0.6170313678545312 -0.7869385561043291 0.0
  outer loop
    vertex -6.170313678545309 7.869385561043289 0.0
    vertex -5.090364857263845 8.607449425929449 3.0
    vertex -6.170313678545309 7.869385561043289 3.0
  endloop
endfacet
facet normal 0.6170313678545312 -0.7869385561043291 0.0
  outer loop
    vertex -6.170313678545309 7.869385561043289 3.0
    vertex -7.144686722052715 6.996674327401811 0.0
    vertex -6.170313678545309 7.869385561043289 0.0
  endloop
endfacet
facet normal 0.7144686722052714 -0.6996674327401816 0.0
  outer loop
    vertex -7.144686722052715 6.996674327401811 0.0
    vertex -6.170313678545309 7.869385561043289 3.0
    vertex -7.144686722052715 6.996674327401811 3.0
  endloop
endfacet
facet normal 0.7144686722052714 -0.6996674327401816 0.0
  outer loop
    vertex -7.144686722052715 6.996674327401811 0.0
    vertex -7.9968121948644075 6.004248056173884 3.0
    vertex -7.9968121948644075 6.004248056173884 0.0
  endloop
endfacet
facet normal 0.799681219486441 -0.6004248056173883 0.0
  outer loop
    vertex -7.9968121948644075 6.004248056173884 3.0
    vertex -7.144686722052715 6.996674327401811 0.0
    vertex -7.144686722052715 6.996674327401811 3.0
  endloop
endfacet
facet normal 0.799681219486441 -0.6004248056173883 0.0
  outer loop
    vertex -7.9968121948644075 6.004248056173884 0.0
    vertex -8.712109993886761 4.909087436012763 3.0
    vertex -8.712109993886761 4.909087436012763 0.0
  endloop
endfacet
facet normal 0.8712109993886763 -0.4909087436012765 0.0
  outer loop
    vertex -8.712109993886761 4.909087436012763 3.0
    vertex -7.9968121948644075 6.004248056173884 0.0
    vertex -7.9968121948644075 6.004248056173884 3.0
  endloop
endfacet
facet normal 0.8712109993886763 -0.4909087436012765 0.0
  outer loop
    vertex -8.712109993886761 4.909087436012763 0.0
    vertex -9.278341175460492 3.729930968765293 3.0
    vertex -9.278341175460492 3.729930968765293 0.0
  endloop
endfacet
facet normal 0.9278341175460493 -0.37299309687652954 0.0
  outer loop
    vertex -9.278341175460492 3.729930968765293 3.0
    vertex -8.712109993886761 4.909087436012763 0.0
    vertex -8.712109993886761 4.909087436012763 3.0
  endloop
endfacet
facet normal 0.9278341175460493 -0.37299309687652954 0.0
  outer loop
    vertex -9.278341175460492 3.729930968765293 0.0
    vertex -9.685817367079924 2.4869543485100136 3.0
    vertex -9.685817367079924 2.4869543485100136 0.0
  endloop
endfacet
facet normal 0.9685817367079929 -0.24869543485100096 0.0
  outer loop
    vertex -9.685817367079924 2.4869543485100136 3.0
    vertex -9.278341175460492 3.729930968765293 0.0
    vertex -9.278341175460492 3.729930968765293 3.0
  endloop
endfacet
facet normal 0.9685817367079929 -0.24869543485100096 0.0
  outer loop
    vertex -9.685817367079924 2.4869543485100136 0.0
    vertex -9.927566538132712 1.2014252498377134 3.0
    vertex -9.927566538132712 1.2014252498377134 0.0
  endloop
endfacet
facet normal 0.9927566538132715 -0.12014252498377126 0.0
  outer loop
    vertex -9.927566538132712 1.2014252498377134 3.0
    vertex -9.685817367079924 2.4869543485100136 0.0
    vertex -9.685817367079924 2.4869543485100136 3.0
  endloop
endfacet
facet normal 0.9927566538132715 -0.12014252498377126 0.0
  outer loop
    vertex -9.927566538132712 1.2014252498377134 0.0
    vertex -9.999452293276606 -0.1046605679573113 3.0
    vertex -9.999452293276606 -0.1046605679573113 0.0
  endloop
endfacet
facet normal 0.9999452293276611 0.010466056795731904 0.0
  outer loop
    vertex -9.999452293276606 -0.1046605679573113 3.0
    vertex -9.927566538132712 1.2014252498377134 0.0
    vertex -9.927566538132712 1.2014252498377134 3.0
  endloop
endfacet
facet normal 0.9999452293276611 0.010466056795731904 0.0
  outer loop
    vertex -9.999452293276606 -0.1046605679573113 0.0
    vertex -9.900244647310599 -1.4089556144171984 3.0
    vertex -9.900244647310599 -1.4089556144171984 0.0
  endloop
endfacet
facet normal 0.9900244647310604 0.1408955614417192 0.0
  outer loop
    vertex -9.900244647310599 -1.4089556144171984 3.0
    vertex -9.999452293276606 -0.1046605679573113 0.0
    vertex -9.999452293276606 -0.1046605679573113 3.0
  endloop
endfacet
facet normal 0.9900244647310604 0.1408955614417192 0.0
  outer loop
    vertex -9.900244647310599 -1.4089556144171984 0.0
    vertex -9.631641070562727 -2.689143039678115 3.0
    vertex -9.631641070562727 -2.689143039678115 0.0
  endloop
endfacet
facet normal 0.9631641070562731 0.2689143039678106 0.0
  outer loop
    vertex -9.631641070562727 -2.689143039678115 3.0
    vertex -9.900244647310599 -1.4089556144171984 0.0
    vertex -9.900244647310599 -1.4089556144171984 3.0
  endloop
endfacet
facet normal 0.9631641070562731 0.2689143039678106 0.0
  outer loop
    vertex -9.631641070562727 -2.689143039678115 0.0
    vertex -9.198237444702123 -3.9233184819588285 3.0
    vertex -9.198237444702123 -3.9233184819588285 0.0
  endloop
endfacet
facet normal 0.9198237444702124 0.3923318481958832 0.0
  outer loop
    vertex -9.198237444702123 -3.9233184819588285 3.0
    vertex -9.631641070562727 -2.689143039678115 0.0
    vertex -9.631641070562727 -2.689143039678115 3.0
  endloop
endfacet
facet normal 0.9198237444702124 0.3923318481958832 0.0
  outer loop
    vertex -9.198237444702123 -3.9233184819588285 0.0
    vertex -8.60744942592945 -5.090364857263842 3.0
    vertex -8.60744942592945 -5.090364857263842 0.0
  endloop
endfacet
facet normal 0.8607449425929451 0.5090364857263847 0.0
  outer loop
    vertex -8.60744942592945 -5.090364857263842 3.0
    vertex -9.198237444702123 -3.9233184819588285 0.0
    vertex -9.198237444702123 -3.9233184819588285 3.0
  endloop
endfacet
facet normal 0.8607449425929451 0.5090364857263847 0.0
  outer loop
    vertex -8.60744942592945 -5.090364857263842 0.0
    vertex -7.8693855610432895 -6.170313678545309 3.0
    vertex -7.8693855610432895 -6.170313678545309 0.0
  endloop
endfacet
facet normal 0.7869385561043291 0.6170313678545312 0.0
  outer loop
    vertex -7.8693855610432895 -6.170313678545309 3.0
    vertex -8.60744942592945 -5.090364857263842 0.0
    vertex -8.60744942592945 -5.090364857263842 3.0
  endloop
endfacet
facet normal 0.7869385561043291 0.6170313678545312 0.0
  outer loop
    vertex -7.8693855610432895 -6.170313678545309 0.0
    vertex -6.996674327401811 -7.144686722052715 3.0
    vertex -6.996674327401811 -7.144686722052715 0.0
  endloop
endfacet
facet normal 0.6996674327401812 0.7144686722052718 0.0
  outer loop
    vertex -6.996674327401811 -7.144686722052715 3.0
    vertex -7.8693855610432895 -6.170313678545309 0.0
    vertex -7.8693855610432895 -6.170313678545309 3.0
  endloop
endfacet
facet normal 0.6996674327401812 0.7144686722052718 0.0
  outer loop
    vertex -6.996674327401811 -7.144686722052715 3.0
    vertex -6.0042480561738865 -7.996812194864405 0.0
    vertex -6.996674327401811 -7.144686722052715 0.0
  endloop
endfacet
facet normal 0.6004248056173884 0.799681219486441 0.0
  outer loop
    vertex -6.0042480561738865 -7.996812194864405 0.0
    vertex -6.996674327401811 -7.144686722052715 3.0
    vertex -6.0042480561738865 -7.996812194864405 3.0
  endloop
endfacet
facet normal 0.6004248056173884 0.799681219486441 0.0
  outer loop
    vertex -6.0042480561738865 -7.996812194864405 3.0
    vertex -4.909087436012765 -8.71210999388676 0.0
    vertex -6.0042480561738865 -7.996812194864405 0.0
  endloop
endfacet
facet normal 0.4909087436012772 0.8712109993886759 0.0
  outer loop
    vertex -4.909087436012765 -8.71210999388676 0.0
    vertex -6.0042480561738865 -7.996812194864405 3.0
    vertex -4.909087436012765 -8.71210999388676 3.0
  endloop
endfacet
facet normal 0.4909087436012772 0.8712109993886759 0.0
  outer loop
    vertex -4.909087436012765 -8.71210999388676 3.0
    vertex -3.729930968765293 -9.278341175460492 0.0
    vertex -4.909087436012765 -8.71210999388676 0.0
  endloop
endfacet
facet normal 0.3729930968765298 0.9278341175460492 0.0
  outer loop
    vertex -3.729930968765293 -9.278341175460492 0.0
    vertex -4.909087436012765 -8.71210999388676 3.0
    vertex -3.729930968765293 -9.278341175460492 3.0
  endloop
endfacet
facet normal 0.3729930968765298 0.9278341175460492 0.0
  outer loop
    vertex -3.729930968765293 -9.278341175460492 3.0
    vertex -2.4869543485100136 -9.685817367079924 0.0
    vertex -3.729930968765293 -9.278341175460492 0.0
  endloop
endfacet
facet normal 0.24869543485100085 0.9685817367079929 0.0
  outer loop
    vertex -2.4869543485100136 -9.685817367079924 0.0
    vertex -3.729930968765293 -9.278341175460492 3.0
    vertex -2.4869543485100136 -9.685817367079924 3.0
  endloop
endfacet
facet normal 0.24869543485100085 0.9685817367079929 0.0
  outer loop
    vertex -2.4869543485100136 -9.685817367079924 3.0
    vertex -1.2014252498377198 -9.927566538132712 0.0
    vertex -2.4869543485100136 -9.685817367079924 0.0
  endloop
endfacet
facet normal 0.12014252498377155 0.9927566538132714 0.0
  outer loop
    vertex -1.2014252498377198 -9.927566538132712 0.0
    vertex -2.4869543485100136 -9.685817367079924 3.0
    vertex -1.2014252498377198 -9.927566538132712 3.0
  endloop
endfacet
facet normal 0.12014252498377155 0.9927566538132714 0.0
  outer loop
    vertex -1.2014252498377198 -9.927566538132712 3.0
    vertex 0.1046605679573113 -9.999452293276606 0.0
    vertex -1.2014252498377198 -9.927566538132712 0.0
  endloop
endfacet
facet normal -0.010466056795731518 0.999945229327661 0.0
  outer loop
    vertex 0.1046605679573113 -9.999452293276606 0.0
    vertex -1.2014252498377198 -9.927566538132712 3.0
    vertex 0.1046605679573113 -9.999452293276606 3.0
  endloop
endfacet
facet normal -0.010466056795731518 0.999945229327661 0.0
  outer loop
    vertex 0.1046605679573113 -9.999452293276606 3.0
    vertex 1.4089556144171977 -9.900244647310599 0.0
    vertex 0.1046605679573113 -9.999452293276606 0.0
  endloop
endfacet
facet normal -0.14089556144171964 0.9900244647310604 0.0
  outer loop
    vertex 1.4089556144171977 -9.900244647310599 0.0
    vertex 0.1046605679573113 -9.999452293276606 3.0
    vertex 1.4089556144171977 -9.900244647310599 3.0
  endloop
endfacet
facet normal -0.14089556144171964 0.9900244647310604 0.0
  outer loop
    vertex 1.4089556144171977 -9.900244647310599 3.0
    vertex 2.6891430396781093 -9.631641070562727 0.0
    vertex 1.4089556144171977 -9.900244647310599 0.0
  endloop
endfacet
facet normal -0.26891430396781085 0.9631641070562731 0.0
  outer loop
    vertex 2.6891430396781093 -9.631641070562727 0.0
    vertex 1.4089556144171977 -9.900244647310599 3.0
    vertex 2.6891430396781093 -9.631641070562727 3.0
  endloop
endfacet
facet normal -0.26891430396781085 0.9631641070562731 0.0
  outer loop
    vertex 2.6891430396781093 -9.631641070562727 3.0
    vertex 3.9233184819588236 -9.198237444702123 0.0
    vertex 2.6891430396781093 -9.631641070562727 0.0
  endloop
endfacet
facet normal -0.3923318481958825 0.9198237444702125 0.0
  outer loop
    vertex 3.9233184819588236 -9.198237444702123 0.0
    vertex 2.6891430396781093 -9.631641070562727 3.0
    vertex 3.9233184819588236 -9.198237444702123 3.0
  endloop
endfacet
facet normal -0.3923318481958825 0.9198237444702125 0.0
  outer loop
    vertex 3.9233184819588236 -9.198237444702123 3.0
    vertex 5.090364857263838 -8.607449425929453 0.0
    vertex 3.9233184819588236 -9.198237444702123 0.0
  endloop
endfacet
facet normal -0.5090364857263838 0.8607449425929454 0.0
  outer loop
    vertex 5.090364857263838 -8.607449425929453 0.0
    vertex 3.9233184819588236 -9.198237444702123 3.0
    vertex 5.090364857263838 -8.607449425929453 3.0
  endloop
endfacet
facet normal -0.5090364857263838 0.8607449425929454 0.0
  outer loop
    vertex 5.090364857263838 -8.607449425929453 3.0
    vertex 6.170313678545308 -7.8693855610432895 0.0
    vertex 5.090364857263838 -8.607449425929453 0.0
  endloop
endfacet
facet normal -0.6170313678545308 0.7869385561043294 0.0
  outer loop
    vertex 6.170313678545308 -7.8693855610432895 0.0
    vertex 5.090364857263838 -8.607449425929453 3.0
    vertex 6.170313678545308 -7.8693855610432895 3.0
  endloop
endfacet
facet normal -0.6170313678545308 0.7869385561043294 0.0
  outer loop
    vertex 6.170313678545308 -7.8693855610432895 3.0
    vertex 7.144686722052715 -6.996674327401811 0.0
    vertex 6.170313678545308 -7.8693855610432895 0.0
  endloop
endfacet
facet normal -0.7144686722052715 0.6996674327401813 0.0
  outer loop
    vertex 7.144686722052715 -6.996674327401811 0.0
    vertex 6.170313678545308 -7.8693855610432895 3.0
    vertex 7.144686722052715 -6.996674327401811 3.0
  endloop
endfacet
facet normal -0.7996812194864412 0.6004248056173882 0.0
  outer loop
    vertex 7.996812194864405 -6.0042480561738865 3.0
    vertex 7.144686722052715 -6.996674327401811 0.0
    vertex 7.144686722052715 -6.996674327401811 3.0
  endloop
endfacet
facet normal -0.7144686722052715 0.6996674327401813 0.0
  outer loop
    vertex 7.144686722052715 -6.996674327401811 0.0
    vertex 7.996812194864405 -6.0042480561738865 3.0
    vertex 7.996812194864405 -6.0042480561738865 0.0
  endloop
endfacet
facet normal -0.8712109993886763 0.4909087436012766 0.0
  outer loop
    vertex 8.712109993886758 -4.909087436012766 3.0
    vertex 7.996812194864405 -6.0042480561738865 0.0
    vertex 7.996812194864405 -6.0042480561738865 3.0
  endloop
endfacet
facet normal -0.7996812194864412 0.6004248056173882 0.0
  outer loop
    vertex 7.996812194864405 -6.0042480561738865 0.0
    vertex 8.712109993886758 -4.909087436012766 3.0
    vertex 8.712109993886758 -4.909087436012766 0.0
  endloop
endfacet
facet normal -0.9278341175460489 0.37299309687653043 0.0
  outer loop
    vertex 9.278341175460488 -3.7299309687652973 3.0
    vertex 8.712109993886758 -4.909087436012766 0.0
    vertex 8.712109993886758 -4.909087436012766 3.0
  endloop
endfacet
facet normal -0.8712109993886763 0.4909087436012766 0.0
  outer loop
    vertex 8.712109993886758 -4.909087436012766 0.0
    vertex 9.278341175460488 -3.7299309687652973 3.0
    vertex 9.278341175460488 -3.7299309687652973 0.0
  endloop
endfacet
facet normal -0.9685817367079924 0.24869543485100226 0.0
  outer loop
    vertex 9.685817367079924 -2.4869543485100185 3.0
    vertex 9.278341175460488 -3.7299309687652973 0.0
    vertex 9.278341175460488 -3.7299309687652973 3.0
  endloop
endfacet
facet normal -0.9278341175460489 0.37299309687653043 0.0
  outer loop
    vertex 9.278341175460488 -3.7299309687652973 0.0
    vertex 9.685817367079924 -2.4869543485100185 3.0
    vertex 9.685817367079924 -2.4869543485100185 0.0
  endloop
endfacet
facet normal -0.9927566538132714 0.12014252498377147 0.0
  outer loop
    vertex 9.927566538132712 -1.201425249837715 3.0
    vertex 9.685817367079924 -2.4869543485100185 0.0
    vertex 9.685817367079924 -2.4869543485100185 3.0
  endloop
endfacet
facet normal -0.9685817367079924 0.24869543485100226 0.0
  outer loop
    vertex 9.685817367079924 -2.4869543485100185 0.0
    vertex 9.927566538132712 -1.201425249837715 3.0
    vertex 9.927566538132712 -1.201425249837715 0.0
  endloop
endfacet
facet normal -0.999945229327661 -0.010466056795731957 0.0
  outer loop
    vertex 9.999452293276606 0.1046605679573113 3.0
    vertex 9.927566538132712 -1.201425249837715 0.0
    vertex 9.927566538132712 -1.201425249837715 3.0
  endloop
endfacet
facet normal -0.9927566538132714 0.12014252498377147 0.0
  outer loop
    vertex 9.927566538132712 -1.201425249837715 0.0
    vertex 9.999452293276606 0.1046605679573113 3.0
    vertex 9.999452293276606 0.1046605679573113 0.0
  endloop
endfacet
facet normal -0.9900244647310604 -0.14089556144171966 0.0
  outer loop
    vertex 9.900244647310599 1.4089556144171977 3.0
    vertex 9.999452293276606 0.1046605679573113 0.0
    vertex 9.999452293276606 0.1046605679573113 3.0
  endloop
endfacet
facet normal -0.999945229327661 -0.010466056795731957 0.0
  outer loop
    vertex 9.999452293276606 0.1046605679573113 0.0
    vertex 9.900244647310599 1.4089556144171977 3.0
    vertex 9.900244647310599 1.4089556144171977 0.0
  endloop
endfacet
facet normal -0.9631641070562732 -0.2689143039678104 0.0
  outer loop
    vertex 9.631641070562727 2.689143039678109 3.0
    vertex 9.900244647310599 1.4089556144171977 0.0
    vertex 9.900244647310599 1.4089556144171977 3.0
  endloop
endfacet
facet normal -0.9900244647310604 -0.14089556144171966 0.0
  outer loop
    vertex 9.900244647310599 1.4089556144171977 0.0
    vertex 9.631641070562727 2.689143039678109 3.0
    vertex 9.631641070562727 2.689143039678109 0.0
  endloop
endfacet
facet normal -0.9198237444702125 -0.39233184819588246 0.0
  outer loop
    vertex 9.198237444702125 3.9233184819588236 3.0
    vertex 9.631641070562727 2.689143039678109 0.0
    vertex 9.631641070562727 2.689143039678109 3.0
  endloop
endfacet
facet normal -0.9631641070562732 -0.2689143039678104 0.0
  outer loop
    vertex 9.631641070562727 2.689143039678109 0.0
    vertex 9.198237444702125 3.9233184819588236 3.0
    vertex 9.198237444702125 3.9233184819588236 0.0
  endloop
endfacet
facet normal -0.8607449425929453 -0.5090364857263844 0.0
  outer loop
    vertex 8.607449425929453 5.090364857263838 3.0
    vertex 9.198237444702125 3.9233184819588236 0.0
    vertex 9.198237444702125 3.9233184819588236 3.0
  endloop
endfacet
facet normal -0.9198237444702125 -0.39233184819588246 0.0
  outer loop
    vertex 9.198237444702125 3.9233184819588236 0.0
    vertex 8.607449425929453 5.090364857263838 3.0
    vertex 8.607449425929453 5.090364857263838 0.0
  endloop
endfacet
facet normal -0.7869385561043293 -0.617031367854531 0.0
  outer loop
    vertex 7.869385561043289 6.17031367854531 3.0
    vertex 8.607449425929453 5.090364857263838 0.0
    vertex 8.607449425929453 5.090364857263838 3.0
  endloop
endfacet
facet normal -0.8607449425929453 -0.5090364857263844 0.0
  outer loop
    vertex 8.607449425929453 5.090364857263838 0.0
    vertex 7.869385561043289 6.17031367854531 3.0
    vertex 7.869385561043289 6.17031367854531 0.0
  endloop
endfacet
facet normal -0.6996674327401815 -0.7144686722052714 0.0
  outer loop
    vertex 6.99667432740181 7.144686722052715 3.0
    vertex 7.869385561043289 6.17031367854531 0.0
    vertex 7.869385561043289 6.17031367854531 3.0
  endloop
endfacet
facet normal -0.7869385561043293 -0.617031367854531 0.0
  outer loop
    vertex 7.869385561043289 6.17031367854531 0.0
    vertex 6.99667432740181 7.144686722052715 3.0
    vertex 6.99667432740181 7.144686722052715 0.0
  endloop
endfacet
facet normal -0.6996674327401815 -0.7144686722052714 0.0
  outer loop
    vertex 6.99667432740181 7.144686722052715 3.0
    vertex 6.004248056173884 7.9968121948644075 0.0
    vertex 6.99667432740181 7.144686722052715 0.0
  endloop
endfacet
facet normal -0.6004248056173885 -0.7996812194864408 0.0
  outer loop
    vertex 6.004248056173884 7.9968121948644075 0.0
    vertex 6.99667432740181 7.144686722052715 3.0
    vertex 6.004248056173884 7.9968121948644075 3.0
  endloop
endfacet
endsolid torus30rad_10hole
